<svg width="192" height="39" fill="none" xmlns="http://www.w3.org/2000/svg"><g clip-path="url(#clip0_118_2379)"><path d="M25.555 19.304l12.87 18.998V.368l-12.87 18.936z" fill="url(#paint0_linear_118_2379)"/><path d="M105.162 21.572l-5.21 7.783-5.147-7.783h-4.229l-5.637 8.273 5.638 8.273h4.473v-8.825l3.616 5.455h2.574l3.677-5.393v8.763h4.473V21.572h-4.228z" fill="url(#paint1_linear_118_2379)"/><path d="M119.686 27.21c.061-.184.122-.43.245-.674.061-.245.123-.552.245-1.042.061.429.184.797.245 1.042.062.245.123.429.245.674l1.778 4.78h-4.351l1.593-4.78zm-2.022-5.638l-6.68 16.546h4.596l.98-2.574h7.048l.981 2.574h4.596l-6.68-16.546h-4.841zm17.649 3.8h2.451c.368 0 .675 0 .981.06.306.062.613.123.797.307a1.2 1.2 0 01.551.552c.123.245.184.551.184.919 0 .367-.061.674-.184.919a1.2 1.2 0 01-.551.551c-.245.123-.491.246-.797.307-.306.061-.613.061-.981.061h-2.451v-3.677zm-4.474-3.8v16.546h4.474V32.91h2.206c1.042 0 2.023-.123 2.942-.306a6.62 6.62 0 002.329-.92c.674-.429 1.164-.98 1.593-1.716.368-.735.552-1.654.552-2.696 0-1.042-.184-1.961-.552-2.697-.368-.735-.919-1.286-1.593-1.777-.674-.429-1.471-.735-2.329-.919-.919-.184-1.9-.245-2.942-.245h-6.68v-.061zm26.72 0l-3.861 6.25h-2.145v-6.25h-4.474v16.546h4.474v-6.373h2.084l4.106 6.373h4.964l-5.577-8.457 5.332-8.028h-4.903v-.061zm6.68 0v16.546h12.379v-3.8h-7.906v-2.696h6.987v-3.738h-6.987V25.37h7.722v-3.8h-12.195zm13.666 0v3.922h4.78v12.624h4.474V25.494h4.78v-3.922h-14.034zm-68.024-15.75c.061-.184.122-.43.183-.674a9.34 9.34 0 00.184-.98c.062.428.123.735.245.98.062.245.123.429.184.674l1.716 4.657h-4.29l1.778-4.657zM107.92.368L101.485 16.3l-5.577-8.21L101.24.306h-5.148l-3.003 4.78L90.086.369h-5.148L90.27 8.15l-5.638 8.395h5.148l3.37-5.454 3.37 5.454h9.439l.92-2.512h6.863l.981 2.512h4.535L112.638.368h-4.718zm22.245 0l-3.003 7.354-3.677-7.354h-4.841l6.496 11.214-.245.552c-.184.429-.49.674-.858.858-.368.184-.797.245-1.348.245-.307 0-.674 0-.981-.061-.367-.061-.674-.123-.919-.245v3.554c.429.123.919.245 1.348.307.429.06.858.122 1.287.122.552 0 1.103-.061 1.594-.184.49-.122.98-.367 1.47-.674.491-.306.92-.735 1.349-1.226.429-.49.796-1.164 1.164-1.96L135.007.367h-4.842zM25.555 19.366L38.425.429v37.934l-12.87-18.997zM70.66.368L59.2 18.14 47.802.368h-20.96l-7.6 12.256L11.645.368H0l12.87 18.998L0 38.363h11.582l7.6-12.256 7.599 12.256h21.51V18.14l8.09 12.502h5.699l8.028-12.502v20.162h9.928V.306h-9.377v.062zm69.802.122c-1.103.307-2.022.858-2.88 1.532-.858.674-1.532 1.594-2.023 2.697-.49 1.103-.796 2.39-.796 3.922 0 1.47.245 2.696.796 3.738.552 1.042 1.226 1.9 2.084 2.513a8.555 8.555 0 002.88 1.47c1.103.307 2.206.49 3.371.49 1.777 0 3.37-.367 4.841-1.041v-4.167a5.342 5.342 0 01-1.838 1.042 7.517 7.517 0 01-2.39.367c-.675 0-1.287-.061-1.9-.245s-1.165-.429-1.655-.796a4.125 4.125 0 01-1.164-1.349c-.307-.551-.429-1.225-.429-2.022 0-.858.122-1.655.429-2.268a4.836 4.836 0 011.164-1.532 5.31 5.31 0 011.655-.858 6.908 6.908 0 011.961-.306c.735 0 1.471.123 2.206.368.735.245 1.348.551 1.839.98V1.042a7.4 7.4 0 00-2.329-.736C145.425.061 144.628 0 143.77 0c-1.164 0-2.267.184-3.309.49z" fill="url(#paint2_linear_118_2379)"/></g><defs><linearGradient id="paint0_linear_118_2379" x1="31.977" y1="38.724" x2="31.977" y2="1.612" gradientUnits="userSpaceOnUse"><stop stop-color="#fff"/><stop offset="0" stop-color="#fff"/><stop offset=".983" stop-color="#4B9EB7"/><stop offset="1" stop-color="#4B9EB7"/></linearGradient><linearGradient id="paint1_linear_118_2379" x1="84.965" y1="29.845" x2="109.396" y2="29.845" gradientUnits="userSpaceOnUse"><stop stop-color="#fff"/><stop offset="0" stop-color="#fff"/><stop offset=".983" stop-color="#4B9EB7"/><stop offset="1" stop-color="#4B9EB7"/></linearGradient><linearGradient id="paint2_linear_118_2379" x1="0" y1="19.167" x2="191.988" y2="19.167" gradientUnits="userSpaceOnUse"><stop stop-color="#194D97"/><stop offset="0" stop-color="#194D97"/><stop offset=".983" stop-color="#33AEC5"/><stop offset="1" stop-color="#33AEC5"/></linearGradient><clipPath id="clip0_118_2379"><path fill="#fff" d="M0 0h192v38.363H0z"/></clipPath></defs></svg>