<?xml version="1.0" encoding="utf-8"?><svg viewBox="0 0 28 27" xmlns="http://www.w3.org/2000/svg" xmlns:xlink="http://www.w3.org/1999/xlink"><style>:root>svg{display:none}:root>svg:target{display:block}</style><svg viewBox="0 0 24 22" id="brick-icon" xmlns="http://www.w3.org/2000/svg"><path d="M22.267 0H1.733C.773 0 0 .788 0 1.765v18.47C0 21.212.773 22 1.733 22h20.534c.96 0 1.733-.788 1.733-1.765V1.765C24 .788 23.227 0 22.267 0zm0 1.358c.213 0 .4.19.4.407v4.7a.414.414 0 01-.4.407h-9.2c-.214 0-.4-.19-.4-.408V1.765c0-.217.186-.407.4-.407h9.2zM10.933 13.77h-3.52c-.213 0-.4-.19-.4-.407V8.637c0-.217.187-.407.4-.407h9.174c.213 0 .4.19.4.407v4.699a.414.414 0 01-.4.407h-5.654v.027zm-5.226 0H1.733a2.02 2.02 0 00-.4.055V8.202c.134.028.267.055.4.055h3.974a2.133 2.133 0 00-.054.407v4.699c.027.136.027.272.054.407zm12.586-5.54h3.974c.133 0 .266-.028.4-.055v5.622c-.134-.027-.267-.054-.4-.054h-3.974a2.13 2.13 0 00.054-.407V8.637c-.027-.136-.027-.272-.054-.407zM1.333 1.765c0-.217.187-.407.4-.407h9.2c.214 0 .4.19.4.407v4.7a.414.414 0 01-.4.407h-9.2c-.213 0-.4-.19-.4-.408V1.765zm.4 18.877c-.213 0-.4-.19-.4-.407v-4.7c0-.216.187-.407.4-.407h9.2c.214 0 .4.19.4.408v4.699a.414.414 0 01-.4.407h-9.2zm20.934-.407a.414.414 0 01-.4.407h-9.2c-.214 0-.4-.19-.4-.407v-4.7c0-.216.186-.407.4-.407h9.173c.213 0 .4.19.4.408v4.699h.027z"/></svg><svg viewBox="0 0 20 18" id="cart-icon" xmlns="http://www.w3.org/2000/svg"><path fill-rule="evenodd" clip-rule="evenodd" d="M7.612 3.084C7.16 3.711 7 4.494 7 5v1h6V5c0-.507-.16-1.289-.611-1.916C11.974 2.508 11.274 2 10 2c-1.274 0-1.974.508-2.388 1.084zM15 6V5c0-.827-.24-2.044-.989-3.084C13.226.825 11.927 0 10 0 8.074 0 6.774.825 5.988 1.916 5.24 2.956 5 4.173 5 5v1H1a1 1 0 000 2h.095l.91 9.1A1 1 0 003 18h14a1 1 0 00.995-.9l.91-9.1H19a1 1 0 100-2h-4zm1.895 2H3.105l.8 8h12.19l.8-8zM7 10a1 1 0 011 1v2a1 1 0 11-2 0v-2a1 1 0 011-1zm3 0a1 1 0 011 1v2a1 1 0 11-2 0v-2a1 1 0 011-1zm3 0a1 1 0 011 1v2a1 1 0 11-2 0v-2a1 1 0 011-1z"/></svg><svg viewBox="0 0 18 24" id="communications-icon" xmlns="http://www.w3.org/2000/svg"><path fill-rule="evenodd" clip-rule="evenodd" d="M7.2 20.8v2.347c0 .03-.024.053-.053.053H2.453a.053.053 0 01-.053-.053V20.8h4.8zM7.147 24A.853.853 0 008 23.147V20.4a.4.4 0 00-.4-.4H2a.4.4 0 00-.4.4v2.747c0 .471.382.853.853.853h4.694zM2.4 3.2V.853c0-.03.024-.053.053-.053h4.694c.029 0 .053.024.053.053V3.2H2.4zm5.2.8a.4.4 0 00.4-.4V.853A.853.853 0 007.147 0H2.453A.853.853 0 001.6.853V3.6c0 .22.179.4.4.4h5.6z"/><path fill-rule="evenodd" clip-rule="evenodd" d="M8.747 5.6H.853A.053.053 0 01.8 5.547V4.053C.8 4.023.824 4 .853 4h7.894c.03 0 .053.024.053.053v1.494c0 .03-.024.053-.053.053zm0 .8a.853.853 0 00.853-.853V4.053a.853.853 0 00-.853-.853H.853A.853.853 0 000 4.053v1.494c0 .471.382.853.853.853h7.894zM8.747 20H.853a.053.053 0 01-.053-.053v-1.494c0-.03.024-.053.053-.053h7.894c.03 0 .053.024.053.053v1.494c0 .03-.024.053-.053.053zm0 .8a.853.853 0 00.853-.853v-1.494a.853.853 0 00-.853-.853H.853a.853.853 0 00-.853.853v1.494c0 .471.382.853.853.853h7.894z"/><path fill-rule="evenodd" clip-rule="evenodd" d="M8 6a.4.4 0 00-.4-.4H2a.4.4 0 00-.4.4v12c0 .221.179.4.4.4h5.6A.4.4 0 008 18v-1.922c.07-.13.18-.304.331-.508a6.365 6.365 0 011.102-1.148c1.248-1.016 2.88-1.622 4.957-1.622a.4.4 0 00.4-.4V7.6a.4.4 0 00-.4-.4c-2.247 0-4.042.518-5.424 1.393-.367.233-.689.482-.966.737V6zm5.99 6.007c-2.08.075-3.757.732-5.062 1.794a7.164 7.164 0 00-1.24 1.293c-.214.29-.36.534-.447.709a.4.4 0 00-.041.177v1.62H2.4V6.4h4.8v3.984c0 .4.523.553.737.215.224-.352.694-.846 1.458-1.33 1.172-.742 2.688-1.206 4.595-1.263v4.001z"/><path fill-rule="evenodd" clip-rule="evenodd" d="M16.412 6h-1.644a.778.778 0 00-.778.778v6.444c0 .43.348.778.778.778h1.644c.43 0 .778-.348.778-.778V6.778A.778.778 0 0016.412 6zm-.022 7.2h-1.6V6.8h1.6v6.4z"/></svg><svg viewBox="0 0 26 20" id="doors-and-windows-icon" xmlns="http://www.w3.org/2000/svg"><path d="M14.733 0h10.516c.415 0 .751.336.751.751V12.77a.751.751 0 01-.751.751H14.733a.751.751 0 01-.751-.75V.75c0-.415.336-.751.751-.751zm6.01 12.018h3.755V7.511h-3.756v4.507zm-5.259 0h3.756V7.511h-3.756v4.507zm5.258-6.009h3.756V1.502h-3.756V6.01zm-5.258 0h3.756V1.502h-3.756V6.01zM1.213 0h9.764c.415 0 .752.336.752.751v18.027a.751.751 0 01-.752.751H1.213a.751.751 0 01-.751-.75V.75C.462.336.798 0 1.212 0zm.75 1.502v16.525h8.263V1.502H1.964zm6.01 9.014a.751.751 0 110-1.502.751.751 0 010 1.502z"/></svg><svg viewBox="0 0 25 21" id="drainage-systems-icon" xmlns="http://www.w3.org/2000/svg"><path fill-rule="evenodd" clip-rule="evenodd" d="M3.208 18.044H.855a.053.053 0 01-.053-.053v-4.705c0-.03.024-.053.053-.053h2.353v4.811zM0 17.991c0 .473.383.855.855.855H3.61c.221 0 .4-.18.4-.4v-5.614c0-.222-.179-.401-.4-.401H.855a.855.855 0 00-.855.855v4.705zM6.015 18.846h12.029a.4.4 0 00.4-.401V12.83a.401.401 0 00-.4-.4H6.014a.401.401 0 00-.4.4v5.614c0 .221.18.4.4.4zm.4-5.614h11.228v4.812H6.416v-4.812zM20.85 13.232h2.353c.03 0 .054.024.054.054v4.705c0 .03-.024.053-.054.053h-2.352v-4.812zm-.801 5.213c0 .221.18.4.4.4h2.754a.855.855 0 00.856-.854v-4.705a.855.855 0 00-.856-.856H20.45a.4.4 0 00-.401.401v5.614z"/><path fill-rule="evenodd" clip-rule="evenodd" d="M18.445 19.595v-7.913c0-.03.024-.053.053-.053h1.497c.03 0 .054.023.054.053v7.913c0 .03-.024.053-.053.053h-1.498a.053.053 0 01-.053-.053zm-.802 0c0 .472.383.855.855.855h1.497a.855.855 0 00.856-.855v-7.913a.855.855 0 00-.855-.855h-1.498a.855.855 0 00-.855.855v7.913zM4.01 19.595v-7.913c0-.03.023-.053.053-.053H5.56c.03 0 .054.023.054.053v7.913c0 .03-.024.053-.054.053H4.063a.053.053 0 01-.053-.053zm-.802 0c0 .472.383.855.855.855H5.56a.855.855 0 00.856-.855v-7.913a.855.855 0 00-.856-.855H4.063a.855.855 0 00-.855.855v7.913zM16.841 5.614a4.812 4.812 0 11-9.623 0 4.812 4.812 0 019.623 0zm.802 0a5.614 5.614 0 10-11.227 0 5.614 5.614 0 0011.227 0z"/><path fill-rule="evenodd" clip-rule="evenodd" d="M12.43 5.614a.401.401 0 11-.802 0 .401.401 0 01.802 0zm.802 0a1.203 1.203 0 10-2.406 0 1.203 1.203 0 002.406 0z"/><path fill-rule="evenodd" clip-rule="evenodd" d="M11.628 3.208v1.604a.4.4 0 10.802 0V3.208a.401.401 0 10-.802 0zM6.817 6.015h2.005a.401.401 0 000-.802H6.817a.401.401 0 100 .802zM15.237 6.015h2.005a.401.401 0 000-.802h-2.005a.401.401 0 100 .802zM11.628 8.821v2.005a.401.401 0 10.802 0V8.821a.401.401 0 10-.802 0z"/><path fill-rule="evenodd" clip-rule="evenodd" d="M12.03 10.426a4.784 4.784 0 01-2.087-.482.401.401 0 00-.55.22l-.947 2.527a.401.401 0 00.376.542h6.415c.28 0 .474-.28.376-.542l-.947-2.526a.401.401 0 00-.55-.22 4.784 4.784 0 01-2.087.48zm2.629 2.005H9.4l.596-1.59a5.559 5.559 0 004.067 0l.596 1.59z"/></svg><svg viewBox="0 0 28 24" id="facade-icon" xmlns="http://www.w3.org/2000/svg"><path d="M26.745 21.097H25.33v-8.962c.632-.577 1.024-1.376 1.024-2.257a.446.446 0 00-.01-.094l-.07-.318v-.195h-.042l-.902-4.14V.629a.464.464 0 00-.472-.455H3.143a.464.464 0 00-.472.455v4.495l-1.117 4.65a.471.471 0 00-.012.104c0 .927.44 1.755 1.128 2.338v8.88H1.255a.464.464 0 00-.472.456v1.82c0 .25.211.454.472.454h25.49c.26 0 .472-.204.472-.455v-1.82a.464.464 0 00-.472-.454zm-3.848-8.945c-1.27 0-2.311-.862-2.477-1.971h4.954c-.166 1.11-1.207 1.97-2.477 1.97zm-9.841-1.062v.041c-.45.614-1.219 1.02-2.092 1.02-1.27 0-2.311-.86-2.478-1.97h4.955c-.049.33-.172.639-.36.91h-.025zm4.752.91h-.032v.009a2.721 2.721 0 01-.846.142c-1.27 0-2.31-.862-2.476-1.971h4.954c-.126.84-.75 1.53-1.6 1.82zM14 11.544c.61.907 1.69 1.517 2.93 1.517.294 0 .575-.045.846-.109v4.506H14v-5.914zm4.72 1.043c.495-.28.903-.668 1.194-1.133.532.853 1.474 1.45 2.583 1.57v4.434H18.72v-4.871zM2.645 9.27l.874-3.639H7.39v2.73h.944v-2.73h4.72v2.73H14v-2.73h5.665v2.73h.944v-2.73h3.865l.792 3.639H2.644zm.97-8.187h20.771v3.638H3.615V1.084zM2.522 10.18h4.954c-.166 1.11-1.207 1.97-2.478 1.97-1.269 0-2.31-.86-2.476-1.97zm1.094 2.61c.424.171.89.27 1.382.27 1.28 0 2.386-.652 2.983-1.607.597.954 1.704 1.607 2.984 1.607.789 0 1.51-.255 2.092-.667v5.519c0 .251.211.455.472.455h9.44c.262 0 .473-.204.473-.455v-4.902c.334-.05.65-.141.944-.272v8.358H11.168v-6.823a.464.464 0 00-.472-.455h-4.72a.464.464 0 00-.473.455v6.823H3.615V12.79zm6.609 8.306H6.447v-6.368h3.777v6.368zm16.05 1.82H1.726v-.91H26.273v.91z"/></svg><svg viewBox="0 0 22 22" id="floor-materials-icon" xmlns="http://www.w3.org/2000/svg"><path d="M0 0v22h22V0H0zm4.994.594H8.47v13.42H4.994V.594zm-4.268 0h3.476v7.524H.726V.594zm3.498 20.79H.726V8.756h3.498v12.628zm4.268.022H4.994v-6.754h3.498v6.754zM9.24.594h3.498v9.724H9.24V.594zm3.498 20.812H9.24V10.978h3.498v10.428zm4.268 0H13.53V5.06h3.498v16.346h-.022zm0-17.028H13.53V.594h3.498v3.784h-.022zm4.29 17.006h-3.498V17.6h3.476v3.784h.022zm0-4.466h-3.498V.594h3.498v16.324z"/></svg><svg viewBox="0 0 25 25" id="insulation-icon" xmlns="http://www.w3.org/2000/svg"><path fill-rule="evenodd" clip-rule="evenodd" d="M2.206 7.37v16.16H.736a.735.735 0 000 1.47h23.529a.735.735 0 100-1.47h-1.47V7.37l1.11.624a.735.735 0 00.72-1.282L12.861.094a.735.735 0 00-.721 0L.375 6.712a.735.735 0 00.72 1.282l1.111-.625zm19.118-.828V23.53H3.677V6.542L12.5 1.58l8.824 4.963zm-8.262 12.103a.735.735 0 00.253-1.008c-.596-.993-.596-1.928 0-2.92.875-1.459.875-2.975 0-4.433a.735.735 0 10-1.261.756c.595.993.595 1.927 0 2.92-.875 1.458-.875 2.975 0 4.433a.735.735 0 001.008.252zm-5.882 0a.735.735 0 00.252-1.008c-.595-.993-.595-1.928 0-2.92.875-1.459.875-2.975 0-4.433a.735.735 0 10-1.26.756c.595.993.595 1.927 0 2.92-.876 1.458-.876 2.975 0 4.433a.735.735 0 001.008.252zm11.765 0a.735.735 0 00.252-1.008c-.595-.993-.595-1.928 0-2.92.875-1.459.875-2.975 0-4.433a.735.735 0 10-1.26.756c.595.993.595 1.927 0 2.92-.876 1.458-.876 2.975 0 4.433a.735.735 0 001.008.252z"/></svg><svg viewBox="0 0 22 26" id="lumber-icon" xmlns="http://www.w3.org/2000/svg"><path d="M20.998 0H.825A.83.83 0 000 .825v23.606a.83.83 0 00.825.825h20.2a.83.83 0 00.824-.825V.825A.835.835 0 0020.998 0zm-.825 23.606h-3.327c.586-2.98 1.384-8.65 1.171-12.774-.026-.453-.426-.825-.878-.799-.453.027-.825.426-.799.878.213 3.78-.558 9.528-1.197 12.695h-4.604C9.9 21.37 9.5 18.549 9.42 15.569c0-.453-.373-.799-.852-.799-.452.027-.825.4-.798.852.08 2.9.452 5.695 1.065 7.984H6.094c-.292-1.49-.638-3.62-.638-5.722a.83.83 0 00-.825-.825.83.83 0 00-.825.825c0 2.102.319 4.178.612 5.722H1.65V1.676h3.14C4.098 5.03 3.78 8.624 3.78 13.2a.83.83 0 00.824.825.83.83 0 00.825-.825c0-4.604.32-8.197 1.038-11.523h4.338c.985 2.82 1.57 7.265 1.57 12.029 0 1.863-.08 3.672-.266 5.402a.817.817 0 00.745.905h.08c.426 0 .772-.32.825-.745a54.25 54.25 0 00.266-5.589c0-4.657-.559-9.022-1.49-12.029h2.954c.24 1.33.346 2.315.479 3.939.027.426.4.772.825.772h.08c.452-.027.798-.426.771-.905-.132-1.544-.239-2.582-.452-3.833h2.954v21.983h.027z"/><path d="M9.288 5.482c-.452-.08-.878.24-.958.692-.32 1.81-.506 3.78-.559 5.829a.813.813 0 00.798.851h.027c.452 0 .825-.346.825-.798.053-1.97.24-3.859.532-5.589.08-.479-.213-.905-.665-.985z"/></svg><svg viewBox="0 0 19 22" id="pack-icon" xmlns="http://www.w3.org/2000/svg"><path d="M18.395 11c0 5.363-1.428 6.76-1.428 6.76l1.428 3.616H.605l1.428-3.616S.605 16.363.605 11c0-5.363 1.428-6.76 1.428-6.76L.605.624H18.42L16.967 4.24s1.428 1.397 1.428 6.76zM6.946 14.268h5.107"/><path d="M13.675 7.283H5.35v4.465h8.326V7.283zM2.533 4.713a.5.5 0 000-1v1zm1.99-1a.5.5 0 000 1v-1zm.996 1a.5.5 0 000-1v1zm1.99-1a.5.5 0 100 1v-1zm.996 1a.5.5 0 100-1v1zm1.99-1a.5.5 0 100 1v-1zm.996 1a.5.5 0 100-1v1zm1.99-1a.5.5 0 000 1v-1zm.995 1a.5.5 0 100-1v1zm1.99-1a.5.5 0 000 1v-1zM2.534 18.287a.5.5 0 000-1v1zm1.99-1a.5.5 0 100 1v-1zm.996 1a.5.5 0 000-1v1zm1.99-1a.5.5 0 100 1v-1zm.996 1a.5.5 0 000-1v1zm1.99-1a.5.5 0 100 1v-1zm.996 1a.5.5 0 100-1v1zm1.99-1a.5.5 0 100 1v-1zm.995 1a.5.5 0 100-1v1zm1.99-1a.5.5 0 100 1v-1zM2.037 4.713h.497v-1h-.497v1zm2.488 0h.995v-1h-.995v1zm2.986 0h.995v-1H7.51v1zm2.985 0h.996v-1h-.996v1zm2.986 0h.995v-1h-.995v1zm2.986 0h.497v-1h-.497v1zM2.036 18.287h.497v-1h-.497v1zm2.488 0h.995v-1h-.995v1zm2.986 0h.995v-1H7.51v1zm2.985 0h.996v-1h-.996v1zm2.986 0h.995v-1h-.995v1zm2.986 0h.497v-1h-.497v1z"/></svg><svg viewBox="0 0 22 27" id="paints-icon" xmlns="http://www.w3.org/2000/svg"><path d="M0 7.312C0 5.76 4.926 4.5 11 4.5c.607 0 1.2.013 1.78.037l.48-2.308C13.534.906 14.676 0 15.947 0c.19 0 .381.02.574.062 1.485.323 2.434 1.816 2.118 3.335l-.374 1.804C20.555 5.716 22 6.47 22 7.312l-.002.05H22v16.825C22 25.74 17.075 27 11 27c-6.074 0-11-1.259-11-2.813V7.362h.003C.002 7.345 0 7.329 0 7.312zm11-1.687c-2.558 0-5.024.233-6.943.655-.884.195-1.643.43-2.196.68a3.345 3.345 0 00-.625.352c.118.09.313.212.625.353.553.25 1.312.485 2.196.68C5.977 8.768 8.442 9 11 9c.287 0 .572-.003.855-.009l.693-3.337A41.53 41.53 0 0011 5.624zm5.293-4.463a1.63 1.63 0 00-1.375.335c-.301.246-.502.58-.582.966l-1.348 6.49a34.274 34.274 0 003.442-.33l1.133-5.46c.19-.91-.38-1.807-1.27-2zm3.846 5.798c-.532-.24-1.258-.468-2.103-.659l-.44 2.117c.118-.024.234-.048.347-.073.885-.195 1.644-.43 2.196-.68.312-.141.507-.263.626-.353a3.358 3.358 0 00-.626-.352zM1.101 24.07c.072.076.273.249.76.47.553.25 1.312.485 2.196.68 1.92.422 4.385.654 6.943.654s5.024-.232 6.943-.654c.885-.195 1.644-.43 2.196-.68.488-.221.689-.394.76-.47V8.54a7.77 7.77 0 01-1.1.46v1.687c0 .311-.245.563-.549.563a.557.557 0 01-.55-.563V9.321c-.345.086-.712.167-1.1.242v7.874a.557.557 0 01-.55.563.557.557 0 01-.55-.563V9.749c-1.618.239-3.496.376-5.5.376v1.688c0 .31-.246.562-.55.562a.557.557 0 01-.55-.563v-1.701c-1.59-.04-3.081-.167-4.4-.362v3.189c0 .31-.246.562-.55.562a.556.556 0 01-.55-.562V9.563a20.618 20.618 0 01-1.1-.242v.25a.556.556 0 01-.55.554.556.556 0 01-.549-.554v-.57a7.759 7.759 0 01-1.1-.461v15.53z"/></svg><svg viewBox="0 0 22 22" id="questions-icon" xmlns="http://www.w3.org/2000/svg"><path d="M11 22a10.98 10.98 0 01-7.777-3.223A10.982 10.982 0 010 11 10.982 10.982 0 013.223 3.22 10.955 10.955 0 0111 0a10.946 10.946 0 017.777 3.22A10.981 10.981 0 0122 10.998a10.98 10.98 0 01-3.223 7.778A10.98 10.98 0 0111 22zm0-20.89c-1.335 0-2.63.263-3.848.778a9.835 9.835 0 00-3.145 2.12 9.836 9.836 0 00-2.12 3.144 9.84 9.84 0 00-.777 3.85c0 1.334.263 2.63.78 3.848a9.835 9.835 0 002.12 3.145 9.834 9.834 0 003.144 2.12 9.836 9.836 0 003.848.777c1.335 0 2.63-.262 3.849-.777a9.835 9.835 0 003.144-2.12 9.835 9.835 0 002.12-3.145 9.84 9.84 0 00.777-3.849 9.84 9.84 0 00-.777-3.849 9.836 9.836 0 00-2.12-3.144 9.835 9.835 0 00-3.144-2.12A9.795 9.795 0 0011 1.11zm-.659 16.352a.678.678 0 001.155.479.676.676 0 10-1.155-.479zm.606-2.12a.554.554 0 01-.555-.555V12.47c0-.755.517-1.398 1.257-1.562A3.21 3.21 0 0013.43 9.8c.467-.575.712-1.27.712-2.012 0-.853-.333-1.655-.936-2.258a3.175 3.175 0 00-2.259-.937 3.199 3.199 0 00-3.195 3.195.554.554 0 01-.555.556.554.554 0 01-.555-.556 4.31 4.31 0 014.305-4.305c1.148 0 2.23.45 3.043 1.262a4.281 4.281 0 011.262 3.043c0 .985-.34 1.946-.959 2.711a4.323 4.323 0 01-2.402 1.492.489.489 0 00-.389.48v2.316c0 .308-.25.555-.555.555z"/></svg><svg viewBox="0 0 28 18" id="roof-icon" xmlns="http://www.w3.org/2000/svg"><path d="M27.217 15.617l-.001-.014-.001-.02c0-.004 0-.008-.002-.013l-.003-.021c0-.004 0-.008-.002-.011a.45.45 0 00-.007-.032L23.345 1.34a.543.543 0 00-.534-.383H5.188a.544.544 0 00-.534.383L.8 15.506l-.008.032c0 .003 0 .007-.002.011l-.003.021-.002.014v.019l-.001.014v1.529c0 .164.086.318.231.413.146.095.333.119.501.065l2.972-.954 3 .954a.595.595 0 00.36 0l2.986-.954 2.986.954a.59.59 0 00.362 0l2.985-.954 2.986.954a.59.59 0 00.361 0l2.987-.954 2.986.954a.582.582 0 00.5-.065.494.494 0 00.231-.413v-1.518-.011zm-16.203-1.479a.602.602 0 00-.362 0l-2.329.745.537-3.94 2.307-.743 2.282.729v3.988l-2.435-.779zm-6.347 0a.6.6 0 00-.362 0l-2.19.704 1.057-3.887 2.33-.755 2.25.713-.548 4.032-2.537-.807zm-.256-7.733l2.075-.654 1.886.607-.479 3.53-2.214-.702a.596.596 0 00-.363 0l-1.823.593.918-3.374zM13.45 1.97v3.335l-1.772-.566a.596.596 0 00-.361 0l-1.685.534.45-3.303h3.368zm4.47 0l.45 3.303-1.686-.534a.593.593 0 00-.36 0l-1.773.566V1.97h3.37zm6.588 7.81l-1.824-.592a.598.598 0 00-.364-.001l-2.212.703-.48-3.53 1.887-.608 2.075.654.918 3.374zM9.478 6.39l2.017-.64 1.954.624v3.483l-2.102-.672a.598.598 0 00-.363 0l-1.973.636.467-3.43zm5.072-.016l1.954-.624 2.017.64.467 3.43-1.973-.635a.595.595 0 00-.363 0l-2.102.672V6.375zm0 4.554l2.282-.73 2.308.742.536 3.941-2.328-.744a.605.605 0 00-.362 0l-2.436.779v-3.988zm6.245 4.016l-.548-4.03 2.251-.715 2.329.755 1.058 3.888-2.204-.704a.6.6 0 00-.362 0l-2.524.806zm2.476-9.71l-1.58-.498a.596.596 0 00-.361.001l-1.843.593-.458-3.363h3.353l.889 3.267zM5.618 1.97H8.97L8.513 5.33 6.67 4.738a.595.595 0 00-.361 0l-1.58.497.89-3.266zm18.063 13.687a.602.602 0 00-.362 0l-2.986.954-2.985-.954a.605.605 0 00-.362 0L14 16.61l-2.986-.954a.602.602 0 00-.362 0l-2.986.955-2.999-.955a.6.6 0 00-.362 0l-2.421.778v-.447l2.603-.835 3 .954.016.005a.398.398 0 00.053.012.52.52 0 00.032.006c.003 0 .007 0 .01.002l.016.001h.011c.014.002.028.002.042.002l.028-.001h.019l.03-.004.017-.002a.42.42 0 00.029-.006l.018-.004.027-.007.013-.004 2.985-.954 2.986.954.007.002.024.007.026.006a.594.594 0 00.175.011l.02-.002.03-.005.023-.004.025-.006a2.18 2.18 0 01.032-.009l2.985-.954 2.986.954.013.004.027.007.018.004.03.006.017.002.029.003c.008 0 .018 0 .026.002h.02l.043-.001c.003 0 .008 0 .012-.002h.014l.01-.002a.599.599 0 00.102-.023l2.987-.954 2.615.836v.447l-2.434-.779z"/></svg><svg viewBox="0 0 18 18" id="search-icon" xmlns="http://www.w3.org/2000/svg"><path d="M17 17l-4.05-4.05m0 0a7 7 0 10-9.9-9.9 7 7 0 009.9 9.9z"/></svg><svg viewBox="0 0 26 20" id="service-icon" xmlns="http://www.w3.org/2000/svg"><path d="M25.659 7.52a2.034 2.034 0 00-1.3-.915c-.534-.111-1.473-.309-2.629-.552l-1.426-.3v-.377c0-1.087-.764-1.972-1.702-1.972-.235 0-.459.055-.662.155-.245-.738-.859-1.264-1.577-1.264-.31 0-.6.1-.85.27a2.015 2.015 0 00-.178-.251 1.673 1.673 0 00-1.262-.603c-.453 0-.864.196-1.176.513a1.63 1.63 0 00-1.175-.513c-.933 0-1.696.828-1.746 1.866l-1.605-.339C7.915 1.641 6.655.425 5.067.091 3.453-.249 1.816.377.797 1.724l-.01.016a.61.61 0 00-.034.055l-.026.05c-.007.016-.012.034-.018.052a.63.63 0 00-.02.063c0 .006-.003.012-.004.018-.003.01-.002.022-.004.033a.625.625 0 00.03.293.55.55 0 00.08.152.628.628 0 00.079.09l.023.024.016.01a.52.52 0 00.052.035.416.416 0 00.097.047c.02.008.04.015.062.02.005.001.01.004.017.005l2.211.466a.586.586 0 01.44.69l-.223 1.156a.581.581 0 01-.24.371.541.541 0 01-.423.086L.69 4.99c-.007-.001-.014 0-.02-.002a.57.57 0 00-.12-.008.56.56 0 00-.115.017C.431 5 .426 5 .422 5c-.008.002-.014.006-.022.009a.56.56 0 00-.071.029l-.038.02a.606.606 0 00-.17.155.581.581 0 00-.102.218l-.009.03c-.001.006 0 .012-.002.017a.627.627 0 00-.006.07L0 5.6a.576.576 0 00.016.12c.001.007.001.014.004.021.44 1.654 1.715 2.893 3.328 3.232.289.061.578.091.865.091 1.29 0 2.516-.604 3.347-1.656l1.187.25a2 2 0 00-.184.833v1.957a2.1 2.1 0 00.742 1.611c.004.004.01.006.013.01l2.063 1.727.026.02c.19.142.364.26.53.364-.092.22-.144.462-.144.716v3.31c0 .99.772 1.794 1.72 1.794h5.158c.948 0 1.72-.805 1.72-1.794v-3.309c0-.456-.166-.873-.437-1.19.227-.367.351-.798.351-1.25v-2.36l3.248.686c.134.028.269.042.401.042.952 0 1.808-.7 2.005-1.708a2.188 2.188 0 00-.3-1.598zm-7.057-2.911c.296 0 .547.351.547.767v2.291c0 .416-.25.768-.547.768-.297 0-.547-.352-.547-.768V6.564 5.373c.001-.415.251-.764.547-.764zm-2.774-.342c0-.409.25-.767.536-.767.285 0 .536.358.536.767v2.294c-.002.407-.252.763-.536.763-.285 0-.536-.358-.536-.767v-2.29zm-1.754-1.351a.53.53 0 01.4.199c.127.15.198.353.198.569v2.29c0 .37-.217.687-.494.753a1.992 1.992 0 00-.135-.325 1.852 1.852 0 00-.57-.666V3.684c.001-.416.276-.768.601-.768zm-2.351 0c.196 0 .333.126.396.2.128.15.2.352.2.568v1.918a2.192 2.192 0 00-.393.172l-.788.34a.949.949 0 01-.01-.14v-2.29c-.001-.416.272-.768.595-.768zM3.576 7.794a3.167 3.167 0 01-1.998-1.387l1.095.23a1.655 1.655 0 001.29-.262 1.78 1.78 0 00.734-1.137l.224-1.157c.187-.967-.416-1.913-1.345-2.108L2.48 1.742a3.066 3.066 0 012.359-.47c1.226.259 2.184 1.232 2.471 2.494l-.087.456a.603.603 0 00.454.71.584.584 0 00.678-.467l1.616.34v1.17c0 .207.03.41.086.604l-.2.086-2.418-.51a.569.569 0 00-.598.257c-.726 1.104-2.007 1.645-3.265 1.382zm15.659 10.413a.578.578 0 01-.565.59h-5.157a.578.578 0 01-.565-.59v-3.31c0-.324.254-.588.565-.588h5.157c.311 0 .565.264.565.588v3.31zm-.086-5.75c0 .247-.079.479-.217.67a1.66 1.66 0 00-.262-.023h-5.157c-.27 0-.524.066-.751.182a5.878 5.878 0 01-.671-.44l-2.06-1.725h-.002a.88.88 0 01-.31-.673V8.492c0-.248.116-.473.306-.596l.085-.037.006-.003 2.28-.981a.538.538 0 00.062-.031c.356-.208.404-.175.577.147a.78.78 0 01.094.373.7.7 0 01-.331.61l-1.122.655a.587.587 0 00-.127.1.62.62 0 000 .851c.093.097.21.154.33.171 1.776.328 2.906 1.162 3.456 2.548a.578.578 0 00.534.373.562.562 0 00.22-.046.612.612 0 00.314-.787c-.54-1.363-1.527-2.327-2.937-2.883a1.79 1.79 0 00.288-.241l.513.108h.002l3.179.67.005.001 1.696.358v2.605zm5.677-3.58c-.098.5-.565.824-1.046.725l-3.475-.734v-.94h-.017c.01-.086.017-.173.017-.261v-.685l1.197.252 2.63.553c.23.048.431.19.564.398.13.206.177.452.13.691z"/></svg><svg viewBox="0 0 24 18" id="sheet-materials-icon" xmlns="http://www.w3.org/2000/svg"><path d="M0 0v17.152h23.81V0H0zm.818.82h22.174v2.448h-8.627v.82h8.627v3.267h-3.699v.815h3.699v4.08h-6.983v.82h6.983v3.269H.818V13.07h8.627v-.82H.818V4.088h6.158v-.82H.818V.82z"/><path d="M3.692 7.355v.815h8.213v-.815H3.692z"/></svg><svg viewBox="0 0 18 23" id="stairs-icon" xmlns="http://www.w3.org/2000/svg"><path d="M.454 23H3.93a.45.45 0 00.298-.114l13.616-12.06A.463.463 0 0018 10.48V5.213a.457.457 0 00-.454-.46h-3.418a.457.457 0 00-.454.46v3.005h-.987V4.162L16.179.92h1.367c.25 0 .454-.206.454-.46a.457.457 0 00-.454-.46h-1.543a.451.451 0 00-.306.12L1.37 13.417H.454a.457.457 0 00-.454.46c0 .254.203.46.454.46h1.094a.452.452 0 00.306-.12l2.307-2.141v3.074h-.289a.457.457 0 00-.453.46v3.005H.454a.457.457 0 00-.454.46v3.466c0 .254.203.46.454.46zm4.614-11.768l6.711-6.228v3.214h-1.07a.457.457 0 00-.454.46v3.005H7.291a.457.457 0 00-.454.46v3.006H5.068v-3.916zm-4.16 8.303h2.964c.25 0 .454-.207.454-.46v-3.006h2.965c.25 0 .453-.206.453-.46v-3.005h2.965c.25 0 .454-.206.454-.46V9.137h2.965c.25 0 .454-.206.454-.46V5.673h2.51v4.598L3.76 22.08H.908v-2.545z"/></svg><svg viewBox="0 0 18 23" id="tools-icon" xmlns="http://www.w3.org/2000/svg"><path fill-rule="evenodd" clip-rule="evenodd" d="M10.062 4.312v9.104h-.959V4.312a.48.48 0 00-.14-.338l-.818-.818V.958h2.875v2.198l-.818.818a.479.479 0 00-.14.338zm-1.917.199v8.905h-.959a.479.479 0 00-.48.48v1.916a.479.479 0 00.48.48h.48v6.229a.48.48 0 00.478.479h2.876a.48.48 0 00.479-.48v-6.229h.479a.479.479 0 00.48-.479v-1.917a.48.48 0 00-.48-.479h-.958V4.511l.818-.818c.09-.09.14-.212.14-.339V.48a.48.48 0 00-.48-.479H7.667a.48.48 0 00-.48.48v2.874c0 .127.051.249.141.339l.818.818zm9.104 16.572V3.833a1.917 1.917 0 00-3.834 0v17.25a1.916 1.916 0 103.834 0zm-1.637-7.667h-1.239v-1.238l1.239 1.238zm-1.239-2.593l1.917 1.916v-1.52l-1.917-1.916v1.52zm0-2.876v-1.52l1.917 1.917v1.52l-1.917-1.917zm0-4.114v1.239l1.917 1.917v-1.52l-1.884-1.884a.957.957 0 00-.033.248zm1.917.281v-.28a.958.958 0 00-1.206-.926l1.206 1.206zm-1.917 10.26v.959h1.917v-.958h-1.917zm0 6.71V16.29h1.917v4.792a.958.958 0 01-1.917 0zm-11.75 1.768a1.867 1.867 0 001.46 0 1.868 1.868 0 001.14-1.783L4.825 8.282a3.35 3.35 0 00-.353-6.17.48.48 0 00-.64.451v2.708h-.957V2.563a.479.479 0 00-.64-.452 3.35 3.35 0 00-.35 6.17l-.4 12.788a1.87 1.87 0 001.14 1.783zM1.137 4.362a2.39 2.39 0 01.778-1.004V5.75a.48.48 0 00.48.48H4.31a.48.48 0 00.48-.48V3.358a2.39 2.39 0 01-.62 4.161.48.48 0 00-.314.466l.41 13.114a.908.908 0 01-.258.664.936.936 0 01-1.313 0 .907.907 0 01-.257-.664l.41-13.114a.48.48 0 00-.315-.466 2.39 2.39 0 01-1.397-3.157zm2.695 15.762h-.958v.959h.958v-.959zm6.708.959v.959H8.624v-.96h1.916zm0-.959v-4.312a.479.479 0 01.48-.479h.479v-.958H7.665v.958h1.917v.958h-.958v3.833h1.916z"/></svg><svg viewBox="0 0 22 18" id="wheelbarrow-icon" xmlns="http://www.w3.org/2000/svg"><path d="M20.39 6.374l.342-1.611h.658c.342 0 .61-.257.61-.584 0-.327-.268-.584-.61-.584h-4.805L14.61 1.121C14.049.397 13.17 0 12.22 0a3.09 3.09 0 00-2.39 1.12L7.853 3.596H4.683l-.756-2.474A.597.597 0 003.34.7H.61C.268.7 0 .956 0 1.283c0 .327.268.584.61.584h2.268l.732 2.404v.07l1.975 6.467v.024l2 6.443c.122.397.513.677.952.7h.024a.993.993 0 00.951-.653l1.78-4.856 4.098.957a2.903 2.903 0 00-.414 1.518c0 1.68 1.439 3.058 3.195 3.058 1.756 0 3.195-1.377 3.195-3.058 0-1.354-.927-2.522-2.22-2.919l1.244-5.65zM10.805 1.82c.341-.42.854-.677 1.415-.677a1.75 1.75 0 011.414.677l1.415 1.774H9.39l1.415-1.774zm5.39 2.942h3.268l-.17.91h-3.659c-.341 0-.61.257-.61.584 0 .327.269.583.61.583h3.415l-1.073 5.02a3.155 3.155 0 00-1.61.56l-9.683-2.264-1-3.316h7.805c.341 0 .61-.256.61-.583 0-.327-.269-.584-.61-.584h-8.17l-.27-.91h11.147zM8.61 16.343L7.073 11.44l3.049.723-1.512 4.18zm11.585-1.425c0 1.05-.878 1.891-1.976 1.891-1.097 0-1.975-.84-1.975-1.89 0-1.051.878-1.892 1.976-1.892 1.097 0 1.975.84 1.975 1.891z"/></svg></svg>