<svg width="192" height="39" viewBox="0 0 192 39" fill="none" xmlns="http://www.w3.org/2000/svg">
<g clip-path="url(#clip0_118_2379)">
<path d="M25.5552 19.3042L38.4246 38.3019V0.367676L25.5552 19.3042Z" fill="url(#paint0_linear_118_2379)"/>
<path d="M105.162 21.5718L99.9528 29.3547L94.8051 21.5718H90.5765L84.9385 29.845L90.5765 38.1182H95.0502V29.2934L98.6659 34.7476H101.24L104.917 29.3547V38.1182H109.39V21.5718H105.162Z" fill="url(#paint1_linear_118_2379)"/>
<path d="M119.686 27.2097C119.747 27.0259 119.808 26.7807 119.931 26.5356C119.992 26.2905 120.054 25.984 120.176 25.4938C120.237 25.9228 120.36 26.2905 120.421 26.5356C120.483 26.7807 120.544 26.9646 120.666 27.2097L122.444 31.9898H118.093L119.686 27.2097ZM117.664 21.5717L110.984 38.1181H115.58L116.56 35.5442H123.608L124.589 38.1181H129.185L122.505 21.5717H117.664ZM135.313 25.3712H137.764C138.132 25.3712 138.439 25.3712 138.745 25.4325C139.051 25.4938 139.358 25.5551 139.542 25.7389C139.787 25.8615 139.971 26.0453 140.093 26.2905C140.216 26.5356 140.277 26.842 140.277 27.2097C140.277 27.5774 140.216 27.8838 140.093 28.129C139.971 28.3741 139.787 28.5579 139.542 28.6805C139.297 28.8031 139.051 28.9256 138.745 28.9869C138.439 29.0482 138.132 29.0482 137.764 29.0482H135.313V25.3712ZM130.839 21.5717V38.1181H135.313V32.909H137.519C138.561 32.909 139.542 32.7865 140.461 32.6026C141.38 32.4188 142.116 32.1124 142.79 31.6834C143.464 31.2544 143.954 30.7028 144.383 29.9674C144.751 29.232 144.935 28.3128 144.935 27.271C144.935 26.2292 144.751 25.3099 144.383 24.5745C144.015 23.8391 143.464 23.2876 142.79 22.7973C142.116 22.3683 141.319 22.0619 140.461 21.8781C139.542 21.6942 138.561 21.6329 137.519 21.6329H130.839V21.5717ZM157.559 21.5717L153.698 27.8225H151.553V21.5717H147.079V38.1181H151.553V31.7447H153.637L157.743 38.1181H162.707L157.13 29.661L162.462 21.6329H157.559V21.5717ZM164.239 21.5717V38.1181H176.618V34.3185H168.712V31.6221H175.699V27.8838H168.712V25.3712H176.434V21.5717H164.239V21.5717ZM177.905 21.5717V25.4938H182.685V38.1181H187.159V25.4938H191.939V21.5717H177.905ZM109.881 5.8219C109.942 5.63805 110.003 5.39291 110.064 5.14778C110.126 4.90265 110.187 4.59623 110.248 4.16725C110.31 4.59623 110.371 4.90265 110.493 5.14778C110.555 5.39291 110.616 5.57676 110.677 5.8219L112.393 10.4794H108.103L109.881 5.8219ZM107.92 0.367699L101.485 16.3013L95.9081 8.08937L101.24 0.306416H96.0919L93.089 5.0865L90.0862 0.367699H84.9384L90.27 8.15065L84.632 16.5464H89.7798L93.1503 11.0922L96.5209 16.5464H101.424H105.958L106.878 14.0338H113.741L114.722 16.5464H119.257L112.638 0.367699H107.92ZM130.165 0.367699L127.162 7.72167L123.485 0.367699H118.644L125.14 11.5825L124.895 12.1341C124.711 12.563 124.405 12.8082 124.037 12.992C123.669 13.1759 123.24 13.2372 122.689 13.2372C122.382 13.2372 122.015 13.2372 121.708 13.1759C121.341 13.1146 121.034 13.0533 120.789 12.9307V16.4852C121.218 16.6077 121.708 16.7303 122.137 16.7916C122.566 16.8529 122.995 16.9141 123.424 16.9141C123.976 16.9141 124.527 16.8529 125.018 16.7303C125.508 16.6077 125.998 16.3626 126.488 16.0562C126.979 15.7498 127.408 15.3208 127.837 14.8305C128.266 14.3402 128.633 13.6661 129.001 12.8695L135.007 0.367699H130.165V0.367699ZM25.5551 19.3655L38.4245 0.428982V38.3632L25.5551 19.3655ZM70.6594 0.367699L59.1995 18.1398L47.8008 0.367699H38.4245H26.842L19.2429 12.6243L11.6438 0.367699H0L12.8695 19.3655L0 38.3632H11.5825L19.1816 26.1066L26.7807 38.3632H38.3632H48.2911V18.1398L56.3805 30.6416H62.0798L70.1079 18.1398V38.3019H80.0357V0.306416H70.6594V0.367699ZM140.461 0.490265C139.358 0.796681 138.439 1.34823 137.581 2.02234C136.723 2.69646 136.049 3.6157 135.558 4.7188C135.068 5.8219 134.762 7.10884 134.762 8.64092C134.762 10.1117 135.007 11.3374 135.558 12.3792C136.11 13.421 136.784 14.279 137.642 14.8918C138.5 15.5659 139.48 16.0562 140.522 16.3626C141.625 16.669 142.728 16.8529 143.893 16.8529C145.67 16.8529 147.263 16.4852 148.734 15.811V11.6438C148.244 12.0728 147.631 12.4405 146.896 12.6856C146.16 12.9307 145.364 13.0533 144.506 13.0533C143.831 13.0533 143.219 12.992 142.606 12.8082C141.993 12.6243 141.441 12.3792 140.951 12.0115C140.461 11.6438 140.093 11.2148 139.787 10.6633C139.48 10.1117 139.358 9.4376 139.358 8.64092C139.358 7.78296 139.48 6.98628 139.787 6.37344C140.093 5.76061 140.461 5.27035 140.951 4.84137C141.441 4.47367 141.993 4.16725 142.606 3.9834C143.219 3.79955 143.893 3.67699 144.567 3.67699C145.302 3.67699 146.038 3.79955 146.773 4.04469C147.508 4.28982 148.121 4.59623 148.612 5.02522V1.04181C147.876 0.674114 147.141 0.428982 146.283 0.306416C145.425 0.0612831 144.628 0 143.77 0C142.606 0 141.503 0.183849 140.461 0.490265Z" fill="url(#paint2_linear_118_2379)"/>
</g>
<defs>
<linearGradient id="paint0_linear_118_2379" x1="31.9767" y1="38.7244" x2="31.9767" y2="1.61154" gradientUnits="userSpaceOnUse">
<stop stop-color="white"/>
<stop offset="2.28484e-07" stop-color="white"/>
<stop offset="0.9829" stop-color="#4B9EB7"/>
<stop offset="1" stop-color="#4B9EB7"/>
</linearGradient>
<linearGradient id="paint1_linear_118_2379" x1="84.9648" y1="29.8447" x2="109.396" y2="29.8447" gradientUnits="userSpaceOnUse">
<stop stop-color="white"/>
<stop offset="2.28484e-07" stop-color="white"/>
<stop offset="0.9829" stop-color="#4B9EB7"/>
<stop offset="1" stop-color="#4B9EB7"/>
</linearGradient>
<linearGradient id="paint2_linear_118_2379" x1="0" y1="19.1666" x2="191.988" y2="19.1666" gradientUnits="userSpaceOnUse">
<stop stop-color="#194D97"/>
<stop offset="4.47534e-07" stop-color="#194D97"/>
<stop offset="0.9829" stop-color="#33AEC5"/>
<stop offset="1" stop-color="#33AEC5"/>
</linearGradient>
<clipPath id="clip0_118_2379">
<rect width="192" height="38.3632" fill="white"/>
</clipPath>
</defs>
</svg>
