<svg width="24" height="24" fill="none" xmlns="http://www.w3.org/2000/svg"><g clip-path="url(#clip0_2086_1737)"><path d="M1.5 1.633C-.386 3.592 0 5.673 0 11.995c0 5.25-.916 10.513 3.878 11.752 1.497.385 14.761.385 16.256-.002 1.996-.515 3.62-2.134 3.842-4.957.031-.394.031-13.185 0-13.587C23.738 2.194 21.887.46 19.448.11 18.89.029 18.78.005 15.91 0 5.737.005 3.507-.448 1.5 1.633z" fill="url(#paint0_linear_2086_1737)"/><path d="M11.998 3.139c-3.63 0-7.079-.323-8.396 3.057-.544 1.396-.465 3.209-.465 5.805 0 2.278-.073 4.419.465 5.804 1.314 3.382 4.79 3.058 8.394 3.058 3.477 0 7.062.362 8.395-3.058.545-1.41.465-3.196.465-5.804 0-3.462.191-5.697-1.488-7.375-1.7-1.7-3.999-1.487-7.374-1.487h.004zm-.794 1.597c7.574-.012 8.538-.854 8.006 10.843-.189 4.137-3.339 3.683-7.21 3.683-7.06 0-7.264-.202-7.264-7.265 0-7.145.56-7.257 6.468-7.263v.002zm5.524 1.47a1.063 1.063 0 100 2.127 1.063 1.063 0 000-2.126zm-4.73 1.244a4.55 4.55 0 10.002 9.1 4.55 4.55 0 000-9.101zm0 1.597c3.905 0 3.91 5.908 0 5.908-3.904 0-3.91-5.908 0-5.908z" fill="#fff"/></g><defs><linearGradient id="paint0_linear_2086_1737" x1="1.546" y1="22.467" x2="23.852" y2="3.162" gradientUnits="userSpaceOnUse"><stop stop-color="#FD5"/><stop offset=".5" stop-color="#FF543E"/><stop offset="1" stop-color="#C837AB"/></linearGradient><clipPath id="clip0_2086_1737"><path fill="#fff" d="M0 0h24v24H0z"/></clipPath></defs></svg>