<svg width="24" height="22" viewBox="0 0 24 22" fill="none" xmlns="http://www.w3.org/2000/svg">
<path d="M22.2667 0H13.0667H10.9333H1.73333C0.773333 0 0 0.787654 0 1.76543V6.4642V15.5086V20.2346C0 21.2123 0.773333 22 1.73333 22H10.9333H13.0667H22.2667C23.2267 22 24 21.2123 24 20.2346V15.5358V6.4642V1.76543C24 0.787654 23.2267 0 22.2667 0ZM22.2667 1.35802C22.48 1.35802 22.6667 1.54815 22.6667 1.76543V6.4642C22.6667 6.68148 22.48 6.8716 22.2667 6.8716H16.5867H13.0667C12.8533 6.8716 12.6667 6.68148 12.6667 6.4642V1.76543C12.6667 1.54815 12.8533 1.35802 13.0667 1.35802H22.2667ZM10.9333 13.7704H7.41333C7.2 13.7704 7.01333 13.5802 7.01333 13.363V8.63704C7.01333 8.41975 7.2 8.22963 7.41333 8.22963H10.9333H13.0667H16.5867C16.8 8.22963 16.9867 8.41975 16.9867 8.63704V13.3358C16.9867 13.5531 16.8 13.7432 16.5867 13.7432H13.0667H10.9333V13.7704ZM5.70667 13.7704H1.73333C1.6 13.7704 1.46667 13.7975 1.33333 13.8247V8.20247C1.46667 8.22963 1.6 8.25679 1.73333 8.25679H5.70667C5.68 8.39259 5.65333 8.52839 5.65333 8.6642V13.363C5.68 13.4988 5.68 13.6346 5.70667 13.7704ZM18.2933 8.22963H22.2667C22.4 8.22963 22.5333 8.20247 22.6667 8.17531V13.7975C22.5333 13.7704 22.4 13.7432 22.2667 13.7432H18.2933C18.32 13.6074 18.3467 13.4716 18.3467 13.3358V8.63704C18.32 8.50123 18.32 8.36543 18.2933 8.22963ZM1.33333 1.76543C1.33333 1.54815 1.52 1.35802 1.73333 1.35802H10.9333C11.1467 1.35802 11.3333 1.54815 11.3333 1.76543V6.4642C11.3333 6.68148 11.1467 6.8716 10.9333 6.8716H7.41333H1.73333C1.52 6.8716 1.33333 6.68148 1.33333 6.4642V1.76543ZM1.73333 20.642C1.52 20.642 1.33333 20.4519 1.33333 20.2346V15.5358C1.33333 15.3185 1.52 15.1284 1.73333 15.1284H7.38667H10.9333C11.1467 15.1284 11.3333 15.3185 11.3333 15.5358V20.2346C11.3333 20.4519 11.1467 20.642 10.9333 20.642H1.73333ZM22.6667 20.2346C22.6667 20.4519 22.48 20.642 22.2667 20.642H13.0667C12.8533 20.642 12.6667 20.4519 12.6667 20.2346V15.5358C12.6667 15.3185 12.8533 15.1284 13.0667 15.1284H16.5867H22.24C22.4533 15.1284 22.64 15.3185 22.64 15.5358V20.2346H22.6667Z" fill="#C0C0C0"/>
</svg>
