<svg width="20" height="18" viewBox="0 0 20 18" fill="none" xmlns="http://www.w3.org/2000/svg">
<path fill-rule="evenodd" clip-rule="evenodd" d="M7.61153 3.0843C7.16022 3.71113 7 4.49336 7 5V6H13V5C13 4.49336 12.8398 3.71113 12.3885 3.0843C11.9739 2.50847 11.2741 2 10 2C8.72592 2 8.02614 2.50847 7.61153 3.0843ZM15 6V5C15 4.17331 14.7602 2.95554 14.0115 1.9157C13.2261 0.824866 11.9259 0 10 0C8.07408 0 6.77386 0.824866 5.98847 1.9157C5.23978 2.95554 5 4.17331 5 5V6H1C0.447715 6 0 6.44772 0 7C0 7.55228 0.447715 8 1 8H1.09501L2.00496 17.0995C2.05608 17.6107 2.48625 18 3 18H17C17.5138 18 17.9439 17.6107 17.995 17.0995L18.905 8H19C19.5523 8 20 7.55228 20 7C20 6.44772 19.5523 6 19 6H15ZM16.895 8H3.10499L3.90499 16H16.095L16.895 8ZM7 10C7.55228 10 8 10.4477 8 11V13C8 13.5523 7.55228 14 7 14C6.44772 14 6 13.5523 6 13V11C6 10.4477 6.44772 10 7 10ZM10 10C10.5523 10 11 10.4477 11 11V13C11 13.5523 10.5523 14 10 14C9.44771 14 9 13.5523 9 13V11C9 10.4477 9.44771 10 10 10ZM13 10C13.5523 10 14 10.4477 14 11V13C14 13.5523 13.5523 14 13 14C12.4477 14 12 13.5523 12 13V11C12 10.4477 12.4477 10 13 10Z" fill="black"/>
</svg>
