<svg width="18" height="24" viewBox="0 0 18 24" fill="none" xmlns="http://www.w3.org/2000/svg">
<path fill-rule="evenodd" clip-rule="evenodd" d="M7.20004 20.8V23.1468C7.20004 23.1761 7.17612 23.2 7.14684 23.2H2.45324C2.42375 23.2 2.40004 23.1763 2.40004 23.1468V20.8H7.20004ZM7.14684 24C7.61783 24 8.00004 23.618 8.00004 23.1468V20.4C8.00004 20.1791 7.82095 20 7.60004 20H2.00004C1.77912 20 1.60004 20.1791 1.60004 20.4V23.1468C1.60004 23.6181 1.98192 24 2.45324 24H7.14684Z" fill="#C0C0C0"/>
<path fill-rule="evenodd" clip-rule="evenodd" d="M2.39991 3.2V0.8532C2.39991 0.823714 2.42363 0.8 2.45311 0.8H7.14671C7.17599 0.8 7.19991 0.823906 7.19991 0.8532V3.2H2.39991ZM7.59991 4C7.82083 4 7.99991 3.82091 7.99991 3.6V0.8532C7.99991 0.38197 7.61771 0 7.14671 0H2.45311C1.9818 0 1.59991 0.381886 1.59991 0.8532V3.6C1.59991 3.82091 1.779 4 1.99991 4H7.59991Z" fill="#C0C0C0"/>
<path fill-rule="evenodd" clip-rule="evenodd" d="M8.7468 5.6002H0.8532C0.823714 5.6002 0.8 5.57648 0.8 5.547V4.0534C0.8 4.02391 0.823714 4.0002 0.8532 4.0002H8.7468C8.77608 4.0002 8.8 4.0241 8.8 4.0534V5.547C8.8 5.57629 8.77608 5.6002 8.7468 5.6002ZM8.7468 6.4002C9.2178 6.4002 9.6 6.01823 9.6 5.547V4.0534C9.6 3.58217 9.2178 3.2002 8.7468 3.2002H0.8532C0.381886 3.2002 0 3.58208 0 4.0534V5.547C0 6.01831 0.381886 6.4002 0.8532 6.4002H8.7468Z" fill="#C0C0C0"/>
<path fill-rule="evenodd" clip-rule="evenodd" d="M8.7468 20.0001H0.8532C0.823714 20.0001 0.8 19.9764 0.8 19.9469V18.4533C0.8 18.4238 0.823714 18.4001 0.8532 18.4001H8.7468C8.77608 18.4001 8.8 18.424 8.8 18.4533V19.9469C8.8 19.9762 8.77608 20.0001 8.7468 20.0001ZM8.7468 20.8001C9.2178 20.8001 9.6 20.4181 9.6 19.9469V18.4533C9.6 17.9821 9.2178 17.6001 8.7468 17.6001H0.8532C0.381886 17.6001 0 17.982 0 18.4533V19.9469C0 20.4182 0.381886 20.8001 0.8532 20.8001H8.7468Z" fill="#C0C0C0"/>
<path fill-rule="evenodd" clip-rule="evenodd" d="M7.99991 6.0001C7.99991 5.77918 7.82083 5.6001 7.59991 5.6001H1.99991C1.779 5.6001 1.59991 5.77918 1.59991 6.0001V18.0001C1.59991 18.221 1.779 18.4001 1.99991 18.4001H7.59991C7.82083 18.4001 7.99991 18.221 7.99991 18.0001V16.078C8.07093 15.9482 8.1805 15.774 8.33126 15.57C8.62399 15.174 8.98948 14.7829 9.43311 14.4217C10.6806 13.4057 12.3122 12.8001 14.3899 12.8001C14.6108 12.8001 14.7899 12.621 14.7899 12.4001V7.6001C14.7899 7.37918 14.6108 7.2001 14.3899 7.2001C12.1426 7.2001 10.3481 7.71817 8.96647 8.59334C8.59857 8.82637 8.2772 9.07457 7.99991 9.32968V6.0001ZM13.9899 12.0072C11.9102 12.0817 10.2326 12.7388 8.92792 13.8013C8.43005 14.2068 8.01896 14.6466 7.68792 15.0945C7.47439 15.3834 7.32754 15.6284 7.24133 15.8029C7.21409 15.858 7.19991 15.9186 7.19991 15.9801V17.6001H2.39991V6.4001H7.19991V10.3845C7.19991 10.7847 7.72253 10.9369 7.93738 10.5992C8.16148 10.2471 8.63149 9.75252 9.39456 9.26916C10.567 8.5265 12.0831 8.06272 13.9899 8.00599V12.0072Z" fill="#C0C0C0"/>
<path fill-rule="evenodd" clip-rule="evenodd" d="M16.4117 6H14.7681C14.3381 6 13.9897 6.34816 13.9897 6.778V13.222C13.9897 13.6518 14.3381 14 14.7681 14H16.4117C16.8414 14 17.1897 13.6517 17.1897 13.222V6.778C17.1897 6.34829 16.8414 6 16.4117 6ZM16.3897 13.2H14.7897V6.8H16.3897V13.2Z" fill="#C0C0C0"/>
</svg>
