<svg width="26" height="20" viewBox="0 0 26 20" fill="none" xmlns="http://www.w3.org/2000/svg">
<path d="M14.733 0H25.2489C25.6637 0 26 0.336293 26 0.751131V12.7692C26 13.1841 25.6637 13.5204 25.2489 13.5204H14.733C14.3182 13.5204 13.9819 13.1841 13.9819 12.7692V0.751131C13.9819 0.336293 14.3182 0 14.733 0ZM20.7421 12.0181H24.4977V7.51131H20.7421V12.0181ZM15.4842 12.0181H19.2398V7.51131H15.4842V12.0181ZM20.7421 6.00905H24.4977V1.50226H20.7421V6.00905ZM15.4842 6.00905H19.2398V1.50226H15.4842V6.00905ZM1.21268 0H10.9774C11.3922 0 11.7285 0.336293 11.7285 0.751131V18.7783C11.7285 19.1931 11.3922 19.5294 10.9774 19.5294H1.21268C0.797841 19.5294 0.461548 19.1931 0.461548 18.7783V0.751131C0.461548 0.336293 0.797841 0 1.21268 0ZM1.96381 1.50226V18.0271H10.2263V1.50226H1.96381ZM7.97286 10.5158C7.55802 10.5158 7.22173 10.1795 7.22173 9.7647C7.22173 9.34986 7.55802 9.01357 7.97286 9.01357C8.3877 9.01357 8.72399 9.34986 8.72399 9.7647C8.72399 10.1795 8.3877 10.5158 7.97286 10.5158Z" fill="#C0C0C0"/>
</svg>
