<svg width="25" height="21" viewBox="0 0 25 21" fill="none" xmlns="http://www.w3.org/2000/svg">
<path fill-rule="evenodd" clip-rule="evenodd" d="M3.20783 18.0444H0.855288C0.825729 18.0444 0.801957 18.0206 0.801957 17.991V13.286C0.801957 13.2564 0.825729 13.2326 0.855288 13.2326H3.20783V18.0444ZM0 17.991C0 18.4635 0.38282 18.8463 0.855288 18.8463H3.60881C3.83026 18.8463 4.00979 18.6668 4.00979 18.4453V12.8316C4.00979 12.6102 3.83026 12.4307 3.60881 12.4307H0.855288C0.38282 12.4307 0 12.8135 0 13.286V17.991Z" fill="#C0C0C0"/>
<path fill-rule="evenodd" clip-rule="evenodd" d="M6.01457 18.8458H18.0439C18.2654 18.8458 18.4449 18.6663 18.4449 18.4449V12.8312C18.4449 12.6097 18.2654 12.4302 18.0439 12.4302H6.01457C5.79311 12.4302 5.61359 12.6097 5.61359 12.8312V18.4449C5.61359 18.6663 5.79311 18.8458 6.01457 18.8458ZM6.41554 13.2321H17.6429V18.0439H6.41554V13.2321Z" fill="#C0C0C0"/>
<path fill-rule="evenodd" clip-rule="evenodd" d="M20.8509 13.2321H23.2034C23.233 13.2321 23.2568 13.2559 23.2568 13.2855V17.9905C23.2568 18.0201 23.233 18.0439 23.2034 18.0439H20.8509V13.2321ZM20.049 18.4449C20.049 18.6663 20.2285 18.8458 20.4499 18.8458H23.2034C23.6759 18.8458 24.0587 18.463 24.0587 17.9905V13.2855C24.0587 12.813 23.6759 12.4302 23.2034 12.4302H20.4499C20.2285 12.4302 20.049 12.6097 20.049 12.8312V18.4449Z" fill="#C0C0C0"/>
<path fill-rule="evenodd" clip-rule="evenodd" d="M18.445 19.5949V11.6819C18.445 11.6524 18.4687 11.6286 18.4983 11.6286H19.9955C20.0251 11.6286 20.0489 11.6524 20.0489 11.6819V19.5949C20.0489 19.6244 20.0251 19.6482 19.9955 19.6482H18.4983C18.4687 19.6482 18.445 19.6244 18.445 19.5949ZM17.643 19.5949C17.643 20.0673 18.0258 20.4501 18.4983 20.4501H19.9955C20.468 20.4501 20.8508 20.0673 20.8508 19.5949V11.6819C20.8508 11.2095 20.468 10.8267 19.9955 10.8267H18.4983C18.0258 10.8267 17.643 11.2095 17.643 11.6819V19.5949Z" fill="#C0C0C0"/>
<path fill-rule="evenodd" clip-rule="evenodd" d="M4.00972 19.5949V11.6819C4.00972 11.6524 4.03349 11.6286 4.06305 11.6286H5.56031C5.58986 11.6286 5.61364 11.6524 5.61364 11.6819V19.5949C5.61364 19.6244 5.58986 19.6482 5.56031 19.6482H4.06305C4.03349 19.6482 4.00972 19.6244 4.00972 19.5949ZM3.20776 19.5949C3.20776 20.0673 3.59058 20.4501 4.06305 20.4501H5.56031C6.03277 20.4501 6.41559 20.0673 6.41559 19.5949V11.6819C6.41559 11.2095 6.03277 10.8267 5.56031 10.8267H4.06305C3.59058 10.8267 3.20776 11.2095 3.20776 11.6819V19.5949Z" fill="#C0C0C0"/>
<path fill-rule="evenodd" clip-rule="evenodd" d="M16.8412 5.6137C16.8412 8.27127 14.687 10.4254 12.0294 10.4254C9.37184 10.4254 7.21767 8.27127 7.21767 5.6137C7.21767 2.95613 9.37184 0.801957 12.0294 0.801957C14.687 0.801957 16.8412 2.95613 16.8412 5.6137ZM17.6431 5.6137C17.6431 2.51322 15.1299 0 12.0294 0C8.92893 0 6.41571 2.51322 6.41571 5.6137C6.41571 8.71418 8.92893 11.2274 12.0294 11.2274C15.1299 11.2274 17.6431 8.71418 17.6431 5.6137Z" fill="#C0C0C0"/>
<path fill-rule="evenodd" clip-rule="evenodd" d="M12.4303 5.61358C12.4303 5.83481 12.2506 6.01456 12.0294 6.01456C11.8081 6.01456 11.6284 5.83481 11.6284 5.61358C11.6284 5.39235 11.8081 5.2126 12.0294 5.2126C12.2506 5.2126 12.4303 5.39235 12.4303 5.61358ZM13.2323 5.61358C13.2323 4.94945 12.6935 4.41064 12.0294 4.41064C11.3652 4.41064 10.8264 4.94945 10.8264 5.61358C10.8264 6.27772 11.3652 6.81652 12.0294 6.81652C12.6935 6.81652 13.2323 6.27772 13.2323 5.61358Z" fill="#C0C0C0"/>
<path fill-rule="evenodd" clip-rule="evenodd" d="M11.6284 3.20762V4.81153C11.6284 5.03299 11.8079 5.21251 12.0293 5.21251C12.2508 5.21251 12.4303 5.03299 12.4303 4.81153V3.20762C12.4303 2.98616 12.2508 2.80664 12.0293 2.80664C11.8079 2.80664 11.6284 2.98616 11.6284 3.20762Z" fill="#C0C0C0"/>
<path fill-rule="evenodd" clip-rule="evenodd" d="M6.81669 6.01485H8.82158C9.04304 6.01485 9.22256 5.83532 9.22256 5.61387C9.22256 5.39241 9.04304 5.21289 8.82158 5.21289H6.81669C6.59523 5.21289 6.41571 5.39241 6.41571 5.61387C6.41571 5.83532 6.59523 6.01485 6.81669 6.01485Z" fill="#C0C0C0"/>
<path fill-rule="evenodd" clip-rule="evenodd" d="M15.2372 6.01485H17.2421C17.4635 6.01485 17.643 5.83532 17.643 5.61387C17.643 5.39241 17.4635 5.21289 17.2421 5.21289H15.2372C15.0157 5.21289 14.8362 5.39241 14.8362 5.61387C14.8362 5.83532 15.0157 6.01485 15.2372 6.01485Z" fill="#C0C0C0"/>
<path fill-rule="evenodd" clip-rule="evenodd" d="M11.6284 8.82139V10.8263C11.6284 11.0477 11.8079 11.2273 12.0293 11.2273C12.2508 11.2273 12.4303 11.0477 12.4303 10.8263V8.82139C12.4303 8.59993 12.2508 8.42041 12.0293 8.42041C11.8079 8.42041 11.6284 8.59993 11.6284 8.82139Z" fill="#C0C0C0"/>
<path fill-rule="evenodd" clip-rule="evenodd" d="M12.0294 10.4257C11.3026 10.4257 10.5962 10.2594 9.94291 9.94427C9.73052 9.8418 9.476 9.94385 9.39322 10.1646L8.44611 12.6908C8.34783 12.9529 8.54161 13.2326 8.82157 13.2326H15.2372C15.5172 13.2326 15.711 12.9529 15.6127 12.6908L14.6656 10.1646C14.5828 9.94385 14.3283 9.8418 14.1159 9.94427C13.4626 10.2594 12.7562 10.4257 12.0294 10.4257ZM14.6587 12.4306H9.40014L9.99582 10.8418C10.6419 11.095 11.3274 11.2277 12.0294 11.2277C12.7314 11.2277 13.4169 11.095 14.063 10.8418L14.6587 12.4306Z" fill="#C0C0C0"/>
</svg>
