<svg width="28" height="24" viewBox="0 0 28 24" fill="none" xmlns="http://www.w3.org/2000/svg">
<path d="M26.7453 21.0969H25.3292V12.1355C25.9608 11.5578 26.3526 10.7591 26.3526 9.87759C26.3526 9.84575 26.3488 9.81482 26.3422 9.78389L26.2733 9.4664V9.27082H26.2308L25.3292 5.13078V0.628678C25.3292 0.377601 25.1177 0.173828 24.8571 0.173828H3.14284C2.88227 0.173828 2.67079 0.377601 2.67079 0.628678V5.12441L1.55392 9.77479C1.54637 9.80845 1.54165 9.84302 1.54165 9.87759C1.54165 10.8046 1.9816 11.6333 2.66985 12.2155V21.0969H1.25464C0.994071 21.0969 0.782593 21.3007 0.782593 21.5518V23.3711C0.782593 23.6222 0.994071 23.826 1.25464 23.826H26.7453C27.0059 23.826 27.2174 23.6222 27.2174 23.3711V21.5518C27.2174 21.3007 27.0059 21.0969 26.7453 21.0969ZM22.8972 12.1518C21.6264 12.1518 20.586 11.2903 20.4199 10.1805H25.3736C25.2083 11.2903 24.167 12.1518 22.8972 12.1518ZM13.0559 11.0902V11.1312C12.6056 11.7452 11.8371 12.1518 10.9638 12.1518C9.69395 12.1518 8.65261 11.2903 8.48644 10.1805H13.4411C13.392 10.5116 13.2693 10.82 13.0804 11.0902H13.0559ZM17.8085 11.9999H17.7764V12.009C17.5111 12.0954 17.2288 12.1509 16.9305 12.1509C15.6607 12.1509 14.6193 11.2894 14.4541 10.1796H19.4078C19.2822 11.0193 18.6582 11.7106 17.8085 11.9999ZM14 11.5442C14.6099 12.4511 15.6899 13.0606 16.9305 13.0606C17.2241 13.0606 17.5045 13.016 17.7764 12.9524V17.4581H14V11.5442ZM18.7205 12.5867C19.2152 12.3074 19.623 11.919 19.9138 11.4541C20.4463 12.3074 21.3885 12.9042 22.4969 13.0242V17.4581H18.7205V12.5867ZM2.64436 9.27082L3.51765 5.63202H7.39129V8.36112H8.33539V5.63202H13.0559V8.36112H14V5.63202H19.6646V8.36112H20.6087V5.63202H24.4738L25.2659 9.27082H2.64436ZM3.61489 1.08353H24.3851V4.72232H20.6087H19.6646H14H13.0559H8.33539H7.39129H3.61489V1.08353ZM2.52068 10.1805H7.47531C7.30915 11.2903 6.26781 12.1518 4.99705 12.1518C3.72818 12.1518 2.68779 11.2903 2.52068 10.1805ZM3.61489 12.7914C4.03879 12.9624 4.50518 13.0615 4.99705 13.0615C6.27631 13.0615 7.38279 12.4093 7.98041 11.4541C8.57708 12.4084 9.68356 13.0606 10.9638 13.0606C11.753 13.0606 12.4734 12.8059 13.0559 12.3938V17.913C13.0559 18.164 13.2674 18.3678 13.5279 18.3678H22.9689C23.2295 18.3678 23.441 18.164 23.441 17.913V13.0106C23.7752 12.9615 24.0905 12.8696 24.3851 12.7386V21.0969H11.1677V14.2742C11.1677 14.0231 10.9562 13.8193 10.6956 13.8193H5.97514C5.71457 13.8193 5.50309 14.0231 5.50309 14.2742V21.0969H3.61489V12.7914ZM10.2236 21.0969H6.44719V14.729H10.2236V21.0969ZM26.2733 22.9163H1.72669V22.0066H3.14284H5.97514H10.6956H24.8571H26.2733V22.9163Z" fill="#C0C0C0"/>
</svg>
