<svg width="22" height="22" viewBox="0 0 22 22" fill="none" xmlns="http://www.w3.org/2000/svg">
<path d="M0 0V22H22V0H0ZM4.994 0.594H8.47V14.014H4.994V0.594ZM0.726 0.594H4.202V8.118H0.726V0.594ZM4.224 21.384H0.726V8.756H4.224V21.384ZM8.492 21.406H4.994V14.652H8.492V21.406ZM9.24 0.594H12.738V10.318H9.24V0.594ZM12.738 21.406H9.24V10.978H12.738V21.406ZM17.006 21.406H13.53V5.06H17.028V21.406H17.006ZM17.006 4.378H13.53V0.594H17.028V4.378H17.006ZM21.296 21.384H17.798V17.6H21.274V21.384H21.296ZM21.296 16.918H17.798V0.594H21.296V16.918V16.918Z" fill="#C0C0C0"/>
</svg>
