<svg width="25" height="25" viewBox="0 0 25 25" fill="none" xmlns="http://www.w3.org/2000/svg">
<path fill-rule="evenodd" clip-rule="evenodd" d="M2.20601 7.36936V23.5294H0.735422C0.329331 23.5294 0.000129137 23.8586 0.000129137 24.2647C0.000129137 24.6708 0.329331 25 0.735422 25H24.2648C24.6709 25 25.0001 24.6708 25.0001 24.2647C25.0001 23.8586 24.6709 23.5294 24.2648 23.5294H22.7942V7.36936L23.9043 7.99381C24.2583 8.1929 24.7066 8.06737 24.9057 7.71343C25.1048 7.35949 24.9792 6.91116 24.6253 6.71207L12.8606 0.0944296C12.6368 -0.0314765 12.3635 -0.0314765 12.1396 0.0944296L0.37494 6.71207C0.0210003 6.91116 -0.104531 7.35949 0.0945596 7.71343C0.293651 8.06737 0.741966 8.1929 1.09591 7.99381L2.20601 7.36936ZM21.3236 6.54216V23.5294H3.6766V6.54216L12.5001 1.57893L21.3236 6.54216ZM13.0625 18.6453C13.4107 18.4364 13.5236 17.9847 13.3147 17.6365C12.7191 16.6439 12.7191 15.7093 13.3147 14.7166C14.1897 13.2583 14.1897 11.7419 13.3147 10.2836C13.1058 9.93535 12.6541 9.82243 12.3059 10.0314C11.9577 10.2403 11.8448 10.692 12.0537 11.0402C12.6493 12.0328 12.6493 12.9674 12.0537 13.96C11.1787 15.4184 11.1787 16.9348 12.0537 18.3931C12.2626 18.7413 12.7143 18.8543 13.0625 18.6453ZM7.18017 18.6453C7.52839 18.4364 7.6413 17.9847 7.43237 17.6365C6.83679 16.6439 6.83679 15.7093 7.43237 14.7166C8.30737 13.2583 8.30737 11.7419 7.43237 10.2836C7.22344 9.93535 6.77178 9.82243 6.42356 10.0314C6.07534 10.2403 5.96243 10.692 6.17136 11.0402C6.76695 12.0328 6.76695 12.9674 6.17136 13.96C5.29636 15.4184 5.29636 16.9348 6.17136 18.3931C6.3803 18.7413 6.83195 18.8543 7.18017 18.6453ZM18.9449 18.6453C19.2931 18.4364 19.406 17.9847 19.1971 17.6365C18.6015 16.6439 18.6015 15.7093 19.1971 14.7166C20.0721 13.2583 20.0721 11.7419 19.1971 10.2836C18.9881 9.93535 18.5365 9.82243 18.1883 10.0314C17.84 10.2403 17.7271 10.692 17.9361 11.0402C18.5316 12.0328 18.5316 12.9674 17.9361 13.96C17.0611 15.4184 17.0611 16.9348 17.9361 18.3931C18.145 18.7413 18.5966 18.8543 18.9449 18.6453Z" fill="#C0C0C0"/>
</svg>
