<svg width="22" height="26" viewBox="0 0 22 26" fill="none" xmlns="http://www.w3.org/2000/svg">
<path d="M20.9978 0H0.825009C0.372585 0 0 0.372584 0 0.825008V24.4309C0 24.8833 0.372585 25.2559 0.825009 25.2559H21.0244C21.4768 25.2559 21.8494 24.8833 21.8494 24.4309V0.825008C21.8494 0.372584 21.4768 0 20.9978 0ZM20.1728 23.6059H16.8461C17.4316 20.6252 18.23 14.9566 18.0171 10.8316C17.9905 10.3791 17.5913 10.0066 17.1389 10.0332C16.6865 10.0598 16.3139 10.459 16.3405 10.9114C16.5534 14.6905 15.7816 20.4389 15.1429 23.6059H10.5388C9.9001 21.3704 9.50091 18.5494 9.42107 15.5687C9.42107 15.1163 9.04848 14.7703 8.56944 14.7703C8.11702 14.7969 7.74444 15.1695 7.77105 15.6219C7.85089 18.5228 8.22347 21.3172 8.83558 23.6059H6.09442C5.80167 22.1155 5.4557 19.9865 5.4557 17.8841C5.4557 17.4316 5.08312 17.059 4.63069 17.059C4.17827 17.059 3.80568 17.4316 3.80568 17.8841C3.80568 19.9865 4.12504 22.0623 4.41779 23.6059H1.65002V1.67663H4.79037C4.09843 5.02989 3.77907 8.62267 3.77907 13.2001C3.77907 13.6526 4.15166 14.0251 4.60408 14.0251C5.0565 14.0251 5.42909 13.6526 5.42909 13.2001C5.42909 8.59606 5.74845 5.00328 6.467 1.67663H10.805C11.7896 4.49763 12.3751 8.94203 12.3751 13.7058C12.3751 15.5687 12.2953 17.3784 12.109 19.1083C12.0558 19.5607 12.4017 19.9865 12.8542 20.0131C12.8808 20.0131 12.9074 20.0131 12.934 20.0131C13.3598 20.0131 13.7058 19.6938 13.759 19.2679C13.9453 17.4849 14.0251 15.5953 14.0251 13.6792C14.0251 9.02187 13.4663 4.65731 12.5348 1.65002H15.4889C15.7284 2.98068 15.8348 3.96536 15.9679 5.58877C15.9945 6.01458 16.3671 6.36055 16.7929 6.36055C16.8195 6.36055 16.8461 6.36055 16.8728 6.36055C17.3252 6.33394 17.6712 5.93474 17.6445 5.4557C17.5115 3.91214 17.405 2.87422 17.1921 1.6234H20.1462V23.6059H20.1728Z" fill="#C0C0C0"/>
<path d="M9.28795 5.48247C8.83552 5.40263 8.40971 5.72199 8.32987 6.17441C8.01051 7.98411 7.82422 9.95348 7.771 12.0027C7.74438 12.4551 8.11697 12.8543 8.56939 12.8543H8.596C9.04843 12.8543 9.42101 12.5083 9.42101 12.0559C9.47424 10.0866 9.66053 8.19702 9.95328 6.46716C10.0331 5.98812 9.74037 5.56231 9.28795 5.48247Z" fill="#C0C0C0"/>
</svg>
