<svg width="19" height="22" viewBox="0 0 19 22" fill="none" xmlns="http://www.w3.org/2000/svg">
<path d="M18.3949 11C18.3949 16.3628 16.9669 17.7596 16.9669 17.7596L18.3949 21.3764H9.51211H0.605103L2.03313 17.7596C2.03313 17.7596 0.605103 16.3628 0.605103 11C0.605103 5.63714 2.03313 4.24032 2.03313 4.24032L0.605103 0.623535H9.51211H18.4191L16.9669 4.24032C16.9669 4.24032 18.3949 5.63714 18.3949 11Z" fill="white" stroke="#C0C0C0" stroke-miterlimit="10" stroke-linecap="round" stroke-linejoin="round"/>
<path d="M6.94647 14.2676H12.0535" stroke="#C0C0C0" stroke-miterlimit="10" stroke-linecap="round" stroke-linejoin="round"/>
<path d="M13.6752 7.2832H5.34906V11.7481H13.6752V7.2832Z" stroke="#C0C0C0" stroke-miterlimit="10" stroke-linecap="round" stroke-linejoin="round"/>
<path d="M2.53339 4.71289C2.80953 4.71289 3.03339 4.48903 3.03339 4.21289C3.03339 3.93675 2.80953 3.71289 2.53339 3.71289V4.71289ZM4.52386 3.71289C4.24772 3.71289 4.02386 3.93675 4.02386 4.21289C4.02386 4.48903 4.24772 4.71289 4.52386 4.71289V3.71289ZM5.5191 4.71289C5.79524 4.71289 6.0191 4.48903 6.0191 4.21289C6.0191 3.93675 5.79524 3.71289 5.5191 3.71289V4.71289ZM7.50958 3.71289C7.23343 3.71289 7.00958 3.93675 7.00958 4.21289C7.00958 4.48903 7.23343 4.71289 7.50958 4.71289V3.71289ZM8.50481 4.71289C8.78096 4.71289 9.00481 4.48903 9.00481 4.21289C9.00481 3.93675 8.78096 3.71289 8.50481 3.71289V4.71289ZM10.4953 3.71289C10.2191 3.71289 9.99529 3.93675 9.99529 4.21289C9.99529 4.48903 10.2191 4.71289 10.4953 4.71289V3.71289ZM11.4905 4.71289C11.7667 4.71289 11.9905 4.48903 11.9905 4.21289C11.9905 3.93675 11.7667 3.71289 11.4905 3.71289V4.71289ZM13.481 3.71289C13.2049 3.71289 12.981 3.93675 12.981 4.21289C12.981 4.48903 13.2049 4.71289 13.481 4.71289V3.71289ZM14.4762 4.71289C14.7524 4.71289 14.9762 4.48903 14.9762 4.21289C14.9762 3.93675 14.7524 3.71289 14.4762 3.71289V4.71289ZM16.4667 3.71289C16.1906 3.71289 15.9667 3.93675 15.9667 4.21289C15.9667 4.48903 16.1906 4.71289 16.4667 4.71289V3.71289ZM2.53339 18.2874C2.80953 18.2874 3.03339 18.0635 3.03339 17.7874C3.03339 17.5112 2.80953 17.2874 2.53339 17.2874V18.2874ZM4.52386 17.2874C4.24772 17.2874 4.02386 17.5112 4.02386 17.7874C4.02386 18.0635 4.24772 18.2874 4.52386 18.2874V17.2874ZM5.5191 18.2874C5.79524 18.2874 6.0191 18.0635 6.0191 17.7874C6.0191 17.5112 5.79524 17.2874 5.5191 17.2874V18.2874ZM7.50958 17.2874C7.23343 17.2874 7.00958 17.5112 7.00958 17.7874C7.00958 18.0635 7.23343 18.2874 7.50958 18.2874V17.2874ZM8.50481 18.2874C8.78096 18.2874 9.00481 18.0635 9.00481 17.7874C9.00481 17.5112 8.78096 17.2874 8.50481 17.2874V18.2874ZM10.4953 17.2874C10.2191 17.2874 9.99529 17.5112 9.99529 17.7874C9.99529 18.0635 10.2191 18.2874 10.4953 18.2874V17.2874ZM11.4905 18.2874C11.7667 18.2874 11.9905 18.0635 11.9905 17.7874C11.9905 17.5112 11.7667 17.2874 11.4905 17.2874V18.2874ZM13.481 17.2874C13.2049 17.2874 12.981 17.5112 12.981 17.7874C12.981 18.0635 13.2049 18.2874 13.481 18.2874V17.2874ZM14.4762 18.2874C14.7524 18.2874 14.9762 18.0635 14.9762 17.7874C14.9762 17.5112 14.7524 17.2874 14.4762 17.2874V18.2874ZM16.4667 17.2874C16.1906 17.2874 15.9667 17.5112 15.9667 17.7874C15.9667 18.0635 16.1906 18.2874 16.4667 18.2874V17.2874ZM2.03577 4.71289H2.53339V3.71289H2.03577V4.71289ZM4.52386 4.71289H5.5191V3.71289H4.52386V4.71289ZM7.50958 4.71289H8.50481V3.71289H7.50958V4.71289ZM10.4953 4.71289H11.4905V3.71289H10.4953V4.71289ZM13.481 4.71289H14.4762V3.71289H13.481V4.71289ZM16.4667 4.71289H16.9643V3.71289H16.4667V4.71289ZM2.03577 18.2874H2.53339V17.2874H2.03577V18.2874ZM4.52386 18.2874H5.5191V17.2874H4.52386V18.2874ZM7.50958 18.2874H8.50481V17.2874H7.50958V18.2874ZM10.4953 18.2874H11.4905V17.2874H10.4953V18.2874ZM13.481 18.2874H14.4762V17.2874H13.481V18.2874ZM16.4667 18.2874H16.9643V17.2874H16.4667V18.2874Z" fill="#C0C0C0"/>
</svg>
