<svg width="22" height="27" viewBox="0 0 22 27" fill="none" xmlns="http://www.w3.org/2000/svg">
<path d="M-6.25212e-07 7.3124C-6.25212e-07 5.75921 4.92566 4.50017 11.0002 4.50017C11.6065 4.50017 12.2006 4.51293 12.7802 4.53682L13.2596 2.22883C13.5339 0.906404 14.6759 0 15.9468 0C16.1361 0 16.3282 0.0201974 16.5208 0.0618051C18.0064 0.384805 18.9551 1.87783 18.6393 3.39722L18.265 5.20091C20.5546 5.71628 22 6.47107 22 7.31235C22 7.3288 21.9984 7.34531 21.9976 7.36182H22V24.1869C22 25.741 17.0751 27 11.0002 27C4.92566 27 -6.25212e-07 25.741 -6.25212e-07 24.1869V7.36187H0.00319678C0.00159838 7.34536 -6.25212e-07 7.32891 -6.25212e-07 7.3124ZM11.0002 5.62489C8.4423 5.62489 5.97622 5.85766 4.05721 6.28039C3.17262 6.47524 2.41374 6.71007 1.86106 6.96019C1.54927 7.10152 1.35431 7.22344 1.23588 7.31246C1.35431 7.40184 1.54927 7.52382 1.86106 7.66514C2.41374 7.91479 3.17262 8.15004 4.05721 8.34495C5.97627 8.76762 8.4423 8.99997 11.0002 8.99997C11.2866 8.99997 11.5718 8.99706 11.8554 8.99132L12.5483 5.65384C12.0387 5.63481 11.5214 5.62489 11.0002 5.62489ZM16.2925 1.16227C16.1781 1.13754 16.0616 1.1252 15.9468 1.1252C15.5755 1.1252 15.2097 1.25704 14.9172 1.49682C14.6167 1.74272 14.4157 2.07643 14.3356 2.4625L12.9877 8.9525C14.2042 8.89402 15.3696 8.78233 16.4298 8.62207L17.5634 3.16366C17.7523 2.25356 17.1823 1.35591 16.2925 1.16227ZM20.1394 6.96013C19.6068 6.71914 18.881 6.49211 18.0363 6.30137L17.5968 8.41777C17.714 8.39389 17.8297 8.36957 17.9428 8.34484C18.8278 8.14999 19.5871 7.91474 20.1394 7.66504C20.4512 7.52371 20.6462 7.40179 20.7646 7.31235C20.6461 7.22344 20.4511 7.10146 20.1394 6.96013ZM1.10053 24.07C1.17302 24.1458 1.37365 24.3188 1.86106 24.5396C2.41374 24.7901 3.17262 25.0249 4.05721 25.2202C5.97627 25.6421 8.4423 25.8744 11.0002 25.8744C13.5581 25.8744 16.0238 25.6421 17.9428 25.2202C18.8278 25.0249 19.5871 24.7901 20.1394 24.5396C20.6268 24.3188 20.8278 24.1457 20.8999 24.07V22.0413V8.5397C20.5905 8.70244 20.2215 8.85653 19.7998 9.00028V10.6874C19.7998 10.998 19.5537 11.2502 19.25 11.2502C18.9462 11.2502 18.7001 10.998 18.7001 10.6874V9.3208C18.3545 9.40734 17.9875 9.48808 17.6 9.56264V17.4369C17.6 17.7483 17.3539 18.0005 17.0502 18.0005C16.7464 18.0005 16.4999 17.7484 16.4999 17.4369V9.74885C14.8822 9.98779 13.0038 10.125 11.0002 10.125V11.8125C11.0002 12.1232 10.7541 12.3749 10.4504 12.3749C10.1462 12.3749 9.89968 12.1232 9.89968 11.8125V10.111C8.30932 10.0706 6.81889 9.94371 5.50088 9.74885V12.9377C5.50088 13.2483 5.25436 13.5 4.94979 13.5C4.64687 13.5 4.40035 13.2483 4.40035 12.9377V9.56264C4.01282 9.48808 3.64627 9.40734 3.29982 9.3208V9.57129C3.29498 9.87779 3.05171 10.125 2.75039 10.125C2.44911 10.125 2.2058 9.87779 2.201 9.57129V9.00028C1.77882 8.85647 1.40984 8.70244 1.10047 8.5397V24.07H1.10053Z" fill="#C0C0C0"/>
</svg>
