<svg width="22" height="22" viewBox="0 0 22 22" fill="none" xmlns="http://www.w3.org/2000/svg">
<path d="M11 22C9.51617 22 8.07525 21.7098 6.7176 21.1343C5.40789 20.5791 4.23193 19.7866 3.22253 18.7771C2.21312 17.7676 1.42074 16.5915 0.865566 15.2816C0.292728 13.9238 0 12.4853 0 10.9987C0 9.51222 0.290204 8.07365 0.865566 6.71584C1.42074 5.40599 2.21312 4.2299 3.22253 3.22037C4.23193 2.21085 5.40789 1.41838 6.7176 0.863141C8.07525 0.290238 9.51617 0 11 0C12.4838 0 13.9273 0.290238 15.2824 0.863141C16.5921 1.41838 17.7681 2.21085 18.7775 3.22037C19.7869 4.2299 20.5793 5.40599 21.1344 6.71584C21.7073 8.07365 22 9.51222 22 10.9987C22 12.4853 21.7098 13.9238 21.1344 15.2816C20.5793 16.5915 19.7869 17.7676 18.7775 18.7771C17.7681 19.7866 16.5921 20.5791 15.2824 21.1343C13.9273 21.7098 12.4863 22 11 22ZM11 1.11047C9.66506 1.11047 8.3705 1.37295 7.15164 1.88781C5.97316 2.38499 4.91581 3.09923 4.00734 4.0078C3.09888 4.91637 2.38472 5.97384 1.88759 7.15246C1.37279 8.37146 1.11035 9.66617 1.11035 11.0013C1.11035 12.3364 1.37279 13.6311 1.89011 14.8501C2.38724 16.0287 3.1014 17.0862 4.00986 17.9947C4.91833 18.9033 5.97568 19.6175 7.15416 20.1147C8.37302 20.6296 9.66758 20.8921 11.0025 20.8921C12.3375 20.8921 13.632 20.6296 14.8509 20.1147C16.0294 19.6175 17.0867 18.9033 17.9952 17.9947C18.9036 17.0862 19.6178 16.0287 20.1149 14.8501C20.6297 13.6311 20.8922 12.3364 20.8922 11.0013C20.8922 9.66617 20.6297 8.37146 20.1149 7.15246C19.6178 5.97384 18.9036 4.91637 17.9952 4.0078C17.0867 3.09923 16.0294 2.38499 14.8509 1.88781C13.632 1.37043 12.3375 1.11047 11 1.11047ZM10.3414 17.4622C10.3414 17.551 10.3589 17.639 10.3928 17.721C10.4268 17.8031 10.4766 17.8777 10.5394 17.9405C10.6022 18.0033 10.6768 18.0531 10.7589 18.0871C10.8409 18.1211 10.9289 18.1386 11.0177 18.1386C11.1065 18.1386 11.1944 18.1211 11.2765 18.0871C11.3585 18.0531 11.4331 18.0033 11.4959 17.9405C11.5587 17.8777 11.6085 17.8031 11.6425 17.721C11.6765 17.639 11.694 17.551 11.694 17.4622C11.694 17.2828 11.6227 17.1108 11.4959 16.9839C11.3691 16.8571 11.197 16.7858 11.0177 16.7858C10.8383 16.7858 10.6663 16.8571 10.5394 16.9839C10.4126 17.1108 10.3414 17.2828 10.3414 17.4622ZM10.947 15.3422C10.6391 15.3422 10.3918 15.0949 10.3918 14.787V12.4701C10.3918 11.7155 10.9092 11.0719 11.6485 10.9079C12.345 10.7514 12.9784 10.3577 13.4301 9.79993C13.897 9.2245 14.1418 8.53046 14.1418 7.78846C14.1418 6.93541 13.8087 6.13284 13.2056 5.52965C12.6024 4.92647 11.8 4.59332 10.947 4.59332C9.18559 4.59332 7.75224 6.02684 7.75224 7.78846C7.75224 8.09636 7.50493 8.3437 7.19706 8.3437C6.88919 8.3437 6.64189 8.09636 6.64189 7.78846C6.64189 5.41356 8.57238 3.48285 10.947 3.48285C12.0952 3.48285 13.1778 3.93209 13.9904 4.74475C14.8029 5.55742 15.2521 6.64013 15.2521 7.78846C15.2521 8.77274 14.9114 9.73431 14.2932 10.499C13.6825 11.2511 12.8295 11.7811 11.8908 11.9906C11.6612 12.0411 11.5022 12.2379 11.5022 12.4701V14.787C11.5022 15.0949 11.2524 15.3422 10.947 15.3422Z" fill="#C0C0C0"/>
</svg>
