<svg width="28" height="18" viewBox="0 0 28 18" fill="none" xmlns="http://www.w3.org/2000/svg">
<path d="M27.2174 15.617C27.2166 15.6125 27.2166 15.6073 27.2158 15.6029C27.2158 15.5962 27.2158 15.5903 27.215 15.5836C27.2141 15.5792 27.2141 15.5747 27.2134 15.5703C27.2125 15.5629 27.2109 15.5562 27.2101 15.5488C27.2093 15.5451 27.2093 15.5414 27.2077 15.5377C27.2061 15.5273 27.2037 15.5162 27.2013 15.5058L23.3451 1.34007C23.2846 1.11477 23.0643 0.956543 22.811 0.956543H5.18819C4.93567 0.956543 4.71546 1.11477 4.65412 1.34007L0.798753 15.5058C0.795552 15.5162 0.7939 15.5273 0.791473 15.5377C0.790647 15.5413 0.790647 15.545 0.789047 15.5495C0.788221 15.5562 0.787446 15.5628 0.785846 15.5703C0.785846 15.5747 0.785019 15.5792 0.784245 15.5836C0.784245 15.5903 0.783419 15.5962 0.783419 15.6029C0.782593 15.6073 0.782593 15.6125 0.782593 15.617C0.782593 15.6207 0.782593 15.6244 0.782593 15.6281V17.1458C0.782593 17.3096 0.868919 17.4638 1.01411 17.5586C1.16012 17.6535 1.3465 17.678 1.51508 17.6238L4.48705 16.6701L7.48643 17.6238C7.6026 17.6616 7.73008 17.6609 7.84785 17.6238L10.8327 16.6701L13.8192 17.6238C13.9354 17.6616 14.0636 17.6616 14.1806 17.6238L17.1663 16.6701L20.152 17.6238C20.2697 17.6616 20.3972 17.6616 20.5134 17.6238L23.4999 16.6701L26.4856 17.6238C26.5445 17.6424 26.6058 17.652 26.6663 17.652C26.7792 17.652 26.8913 17.6201 26.9849 17.5586C27.1309 17.4638 27.2173 17.3096 27.2173 17.1458V15.6281C27.2174 15.6244 27.2174 15.6207 27.2174 15.617ZM11.0135 14.1384C10.8974 14.1014 10.7699 14.1014 10.6521 14.1384L8.32311 14.8825L8.8596 10.9428L11.1668 10.1996L13.4491 10.9288V14.9166L11.0135 14.1384ZM4.66703 14.1384C4.60812 14.1199 4.54766 14.1103 4.48715 14.1103C4.42581 14.1103 4.3637 14.1199 4.30484 14.1384L2.11539 14.8417L3.17217 10.9554L5.502 10.1995L7.75274 10.9131L7.20417 14.9455L4.66703 14.1384ZM4.4113 6.40515L6.48619 5.75113L8.37231 6.35848L7.89313 9.88761L5.67946 9.18577C5.56169 9.14835 5.43421 9.14873 5.31644 9.18687L3.49326 9.77866L4.4113 6.40515ZM13.449 1.96852V5.30423L11.6766 4.73805C11.5605 4.70063 11.433 4.70063 11.316 4.73767L9.63076 5.27236L10.0801 1.96852H13.449ZM17.9191 1.96852L18.3693 5.27236L16.6832 4.73767C16.567 4.70063 16.4396 4.70063 16.3234 4.73805L14.5502 5.30423V1.96852H17.9191ZM24.5068 9.77861L22.6828 9.18682C22.5658 9.14864 22.4367 9.1483 22.3189 9.18573L20.1069 9.88865L19.6269 6.35843L21.5138 5.75108L23.5887 6.4051L24.5068 9.77861ZM9.47829 6.39139L11.4951 5.75108L13.449 6.37546V9.85754L11.3474 9.18611C11.2297 9.14868 11.1022 9.14868 10.9844 9.18649L9.01119 9.82163L9.47829 6.39139ZM14.5502 6.3755L16.5041 5.75113L18.5209 6.39144L18.988 9.82049L17.0147 9.18649C16.8977 9.14868 16.7695 9.14868 16.6525 9.18611L14.5501 9.85754V6.3755H14.5502ZM14.5502 10.9287L16.8324 10.1996L19.1404 10.9413L19.6761 14.8825L17.3479 14.1384C17.2301 14.1014 17.1027 14.1014 16.9857 14.1384L14.5501 14.9166V10.9287H14.5502ZM20.795 14.9448L20.2473 10.9146L22.498 10.1996L24.827 10.9554L25.8846 14.8433L23.6806 14.1385C23.5636 14.1014 23.4362 14.1014 23.3192 14.1385L20.795 14.9448ZM23.2709 5.23527L21.6913 4.73725C21.5736 4.7002 21.4469 4.70058 21.3299 4.73834L19.4873 5.33122L19.0291 1.96848H22.3818L23.2709 5.23527ZM5.61817 1.96852H8.97009L8.5127 5.33127L6.6701 4.73838C6.5531 4.70058 6.42568 4.7002 6.30868 4.73729L4.72914 5.23532L5.61817 1.96852ZM23.6807 15.6562C23.5637 15.6192 23.4363 15.6192 23.3193 15.6562L20.3328 16.61L17.3479 15.6562C17.2301 15.6192 17.1027 15.6192 16.9857 15.6562L14 16.61L11.0135 15.6562C10.8974 15.6192 10.7699 15.6192 10.6521 15.6562L7.66564 16.6108L4.66703 15.6562C4.60812 15.6377 4.54766 15.6281 4.48715 15.6281C4.42581 15.6281 4.3637 15.6377 4.30484 15.6562L1.88388 16.4337V15.9875L4.48715 15.1523L7.48653 16.1061V16.1069C7.49299 16.1083 7.49784 16.1098 7.50347 16.1113C7.51395 16.1143 7.52526 16.1173 7.53656 16.1195C7.54302 16.121 7.54947 16.1224 7.55593 16.1232C7.56641 16.1254 7.57771 16.1276 7.5882 16.1291C7.5914 16.1291 7.59465 16.1299 7.5979 16.1306C7.60353 16.1313 7.60921 16.1313 7.61401 16.1321C7.61804 16.1321 7.62129 16.1321 7.62532 16.1328C7.63905 16.1336 7.65273 16.1343 7.66724 16.1343C7.67612 16.1343 7.685 16.1335 7.69466 16.1328C7.70111 16.1328 7.70757 16.1328 7.71402 16.1321C7.72373 16.1313 7.73338 16.1298 7.74386 16.1291C7.74949 16.1284 7.75517 16.1276 7.7608 16.1269C7.7705 16.1254 7.78016 16.1232 7.78981 16.121C7.79627 16.1195 7.8019 16.1187 7.80757 16.1173C7.81728 16.115 7.82534 16.1121 7.83499 16.1099C7.83902 16.1084 7.84304 16.1076 7.8479 16.1062L10.8328 15.1524L13.8193 16.1062C13.8209 16.1069 13.8241 16.1076 13.8265 16.1084C13.8338 16.1106 13.8419 16.1128 13.8499 16.1151C13.8588 16.1173 13.8677 16.1188 13.8757 16.121C13.8838 16.1225 13.8911 16.1239 13.8984 16.1255C13.9088 16.1269 13.9193 16.1284 13.929 16.1299C13.9355 16.1307 13.9419 16.1314 13.9484 16.1321C13.9661 16.1336 13.9823 16.1344 14 16.1344C14.0169 16.1344 14.0339 16.1336 14.0508 16.1321C14.0581 16.1314 14.0637 16.1307 14.0702 16.1299C14.0807 16.1284 14.0904 16.127 14.1008 16.1255C14.1081 16.124 14.1162 16.1225 14.1242 16.121C14.1323 16.1188 14.1403 16.1173 14.1492 16.1151C14.1573 16.1128 14.1653 16.1106 14.1734 16.1084C14.1759 16.1076 14.1783 16.1069 14.1807 16.1062L17.1664 15.1524L20.1521 16.1062C20.1569 16.1076 20.1601 16.1084 20.165 16.1099C20.1739 16.1121 20.1827 16.115 20.1924 16.1173C20.198 16.1187 20.2037 16.1195 20.2102 16.121C20.2199 16.1232 20.2295 16.1254 20.2392 16.1269C20.2448 16.1276 20.2505 16.1284 20.2569 16.1291C20.2666 16.1306 20.2763 16.1313 20.2859 16.1321C20.294 16.1328 20.3037 16.1328 20.3118 16.1335C20.3182 16.1335 20.3255 16.1343 20.3327 16.1343C20.3465 16.1343 20.3601 16.1335 20.3747 16.1328C20.3779 16.1321 20.3827 16.1321 20.3867 16.1313C20.3916 16.1313 20.3964 16.1306 20.4012 16.1306C20.4044 16.1298 20.4069 16.1291 20.4101 16.1291C20.4214 16.1276 20.4335 16.1254 20.4448 16.1232C20.4504 16.1224 20.4569 16.121 20.4634 16.1195C20.4738 16.1173 20.4851 16.1143 20.4956 16.1113C20.5021 16.1099 20.5069 16.1084 20.5134 16.1062L23.4999 15.1524L26.1153 15.9883V16.4345L23.6807 15.6562Z" fill="#C0C0C0"/>
</svg>
