<svg width="26" height="20" viewBox="0 0 26 20" fill="none" xmlns="http://www.w3.org/2000/svg">
<path d="M25.6586 7.51931C25.3552 7.04272 24.8941 6.71827 24.3591 6.6053C23.8246 6.49353 22.8862 6.29621 21.7303 6.0528L20.3043 5.75275V5.37648C20.3043 4.28895 19.5404 3.40386 18.6015 3.40386C18.3669 3.40386 18.1433 3.45899 17.9396 3.55901C17.6949 2.82063 17.0813 2.29494 16.3631 2.29494C16.0528 2.29494 15.7625 2.39466 15.5123 2.56577C15.4585 2.47811 15.4016 2.39225 15.3349 2.31362C15.0061 1.93073 14.5465 1.71141 14.0735 1.71141C13.6205 1.71141 13.2085 1.90693 12.8968 2.22445C12.5738 1.89367 12.1618 1.71141 11.7224 1.71141C10.789 1.71141 10.026 2.53926 9.976 3.57709L8.37056 3.23817C7.91467 1.64092 6.65534 0.425357 5.06695 0.0909636C3.45284 -0.248551 1.81563 0.376855 0.796663 1.72437C0.792907 1.72949 0.790596 1.73521 0.78684 1.74033C0.774417 1.75781 0.764017 1.77618 0.753327 1.79516C0.744082 1.81173 0.734838 1.828 0.727037 1.84517C0.720392 1.86144 0.714614 1.87891 0.708547 1.89669C0.701325 1.91777 0.69468 1.93856 0.689769 1.95995C0.688324 1.96597 0.685724 1.9717 0.684568 1.97772C0.682257 1.98887 0.682835 2.00002 0.68139 2.01116C0.678501 2.03315 0.675901 2.05454 0.675323 2.07653C0.674746 2.09582 0.675323 2.11449 0.676479 2.13317C0.677635 2.15275 0.679079 2.17203 0.682257 2.19131C0.685146 2.21089 0.68948 2.22987 0.694102 2.24855C0.698725 2.26723 0.703925 2.28561 0.710281 2.30368C0.716637 2.32176 0.723859 2.33893 0.731948 2.3561C0.740038 2.37387 0.748705 2.39135 0.758817 2.40852C0.76835 2.42509 0.77904 2.44075 0.790307 2.45612C0.801285 2.47148 0.812553 2.48624 0.824975 2.5007C0.838843 2.51667 0.854155 2.53143 0.869756 2.54589C0.878134 2.55342 0.88449 2.56246 0.893446 2.56969C0.898357 2.57361 0.903846 2.57602 0.908758 2.57993C0.925514 2.59289 0.943137 2.60403 0.961338 2.61488C0.977228 2.62452 0.992828 2.63416 1.00901 2.64199C1.0249 2.65012 1.04165 2.65615 1.05841 2.66217C1.07863 2.66971 1.09886 2.67694 1.11966 2.68176C1.12544 2.68326 1.13064 2.68597 1.1367 2.68718L3.34797 3.15292C3.65219 3.21709 3.84951 3.52617 3.78855 3.84249L3.56465 4.99931C3.53489 5.15235 3.44995 5.284 3.32515 5.37016C3.20005 5.45662 3.04982 5.48704 2.90219 5.45601L0.690346 4.99027C0.683124 4.98877 0.67619 4.98937 0.669256 4.98786C0.652211 4.98485 0.635166 4.98364 0.617832 4.98244C0.595008 4.98063 0.572474 4.97913 0.549939 4.98003C0.537516 4.98063 0.525382 4.98244 0.51296 4.98395C0.486669 4.98696 0.460668 4.99087 0.435244 4.9975C0.430911 4.99871 0.426288 4.99871 0.421955 4.99991C0.414154 5.00232 0.40751 5.00624 0.399709 5.00895C0.375441 5.01708 0.351751 5.02642 0.328639 5.03787C0.315638 5.0442 0.303504 5.05143 0.29137 5.05866C0.271725 5.07041 0.252946 5.08276 0.234745 5.09662C0.221745 5.10656 0.2099 5.1171 0.197766 5.12795C0.182165 5.14211 0.167142 5.15687 0.152986 5.17283C0.141429 5.18579 0.131029 5.19934 0.120628 5.2132C0.108494 5.22947 0.0972272 5.24604 0.0868267 5.26351C0.0770039 5.28008 0.0683369 5.29725 0.0599587 5.31472C0.0521583 5.33129 0.0446467 5.34786 0.0382908 5.36533C0.0304904 5.38672 0.0244234 5.40872 0.0189343 5.43101C0.0163341 5.44125 0.0120006 5.45059 0.00997823 5.46083C0.00882261 5.46686 0.0094004 5.47258 0.00824479 5.47831C0.00448904 5.5015 0.00275569 5.5247 0.00160007 5.5485C0.000733364 5.56567 -0.000422284 5.58284 0.000155523 5.59971C0.000733331 5.6202 0.00333344 5.64038 0.00622247 5.66087C0.00882261 5.68105 0.0114227 5.70063 0.0160452 5.72021C0.0174897 5.72714 0.0174897 5.73407 0.019512 5.741C0.459512 7.39519 1.73502 8.63425 3.34797 8.97346C3.63687 9.03432 3.92636 9.06414 4.21295 9.06414C5.50233 9.06414 6.72901 8.46043 7.55961 7.40845L8.747 7.65879C8.63029 7.91395 8.56326 8.19653 8.56326 8.49086V10.4475C8.56326 11.0744 8.83367 11.6619 9.30488 12.0592C9.30921 12.0628 9.31412 12.0652 9.31845 12.0689L11.3809 13.796L11.4072 13.8167C11.5973 13.958 11.771 14.0758 11.9371 14.1804C11.8449 14.4 11.7932 14.6416 11.7932 14.8961V18.2063C11.7932 19.1953 12.5649 20 13.5133 20H18.6708C19.6193 20 20.391 19.1953 20.391 18.2063V14.8973C20.391 14.4406 20.2249 14.0243 19.9544 13.7074C20.1812 13.3396 20.3055 12.9088 20.3055 12.4578V10.0971L23.5527 10.7828C23.6874 10.8111 23.8217 10.8247 23.9543 10.8247C24.9062 10.8247 25.7623 10.1255 25.959 9.11686C26.0668 8.56165 25.9605 7.99469 25.6586 7.51931ZM18.6021 4.60888C18.8985 4.60888 19.1493 4.96045 19.1493 5.37648V6.24319C19.1493 6.24651 19.1493 6.24952 19.1493 6.25283V7.66692C19.1493 8.08296 18.8988 8.43452 18.6021 8.43452C18.3054 8.43452 18.0546 8.08296 18.0546 7.66692V6.56433C18.0546 6.56433 18.0549 6.56011 18.0549 6.5577V5.37287C18.0563 4.95834 18.306 4.60888 18.6021 4.60888ZM15.8283 4.26726C15.8283 3.85846 16.0785 3.49966 16.3639 3.49966C16.6494 3.49966 16.8996 3.85816 16.8996 4.26726V5.36985L16.8993 5.37618V6.56102C16.8978 6.96801 16.6485 7.3244 16.3639 7.3244C16.0788 7.3244 15.8283 6.9659 15.8283 6.5571V4.26726ZM14.0741 2.91583C14.2212 2.91583 14.3633 2.98723 14.4731 3.11496C14.6013 3.26559 14.6718 3.46773 14.6718 3.68403V5.97477C14.6718 6.34441 14.4546 6.66133 14.1784 6.72701C14.1417 6.61524 14.0987 6.50589 14.0429 6.40225C13.8817 6.1019 13.689 5.8841 13.4738 5.73558V3.68403C13.474 3.2677 13.7488 2.91583 14.0741 2.91583ZM11.7227 2.91583C11.9189 2.91583 12.0561 3.04176 12.1194 3.11526C12.2474 3.26559 12.3181 3.46773 12.3181 3.68403V5.60212C12.1904 5.6446 12.0604 5.69792 11.9264 5.77354L11.138 6.11305C11.1313 6.06756 11.1273 6.02147 11.1273 5.97447V4.31245V4.30703V3.68373C11.127 3.2677 11.4 2.91583 11.7227 2.91583ZM3.57621 7.79375C2.7433 7.61842 2.03866 7.11171 1.57815 6.40677L2.67338 6.63753C2.78808 6.66194 2.90364 6.67369 3.01775 6.67369C3.35202 6.67369 3.67905 6.57186 3.96362 6.37484C4.34584 6.11064 4.60644 5.70696 4.69686 5.23821L4.92076 4.08139C5.10797 3.11436 4.50532 2.16812 3.57649 1.9726L2.48039 1.74184C3.16654 1.27851 4.00494 1.09715 4.83871 1.27218C6.06453 1.53066 7.02283 2.50402 7.31 3.76627L7.22304 4.22237C7.16092 4.54893 7.36402 4.86616 7.6769 4.93123C7.71504 4.93876 7.75317 4.94267 7.79044 4.94267C8.05826 4.94267 8.29776 4.74716 8.35496 4.46428L9.97138 4.8053V5.97508C9.97138 6.18234 10.0011 6.38508 10.0566 6.57879L9.85639 6.66495L7.43942 6.15553C7.40187 6.14769 7.36431 6.14318 7.32646 6.14318C7.12914 6.14077 6.94742 6.245 6.84139 6.4122C6.11509 7.5163 4.83438 8.05735 3.57621 7.79375ZM19.2348 18.2075C19.2348 18.532 18.9814 18.7962 18.6703 18.7962H13.5128C13.2016 18.7962 12.9482 18.532 12.9482 18.2075V14.8973C12.9482 14.5729 13.2016 14.3087 13.5128 14.3087H18.6703C18.9814 14.3087 19.2348 14.5729 19.2348 14.8973V18.2075ZM19.1493 12.4575C19.1493 12.7036 19.0704 12.9359 18.9317 13.1266C18.8462 13.113 18.7592 13.1037 18.6703 13.1037H13.5128C13.2435 13.1037 12.9893 13.1702 12.7619 13.2859C12.5652 13.1781 12.347 13.0365 12.0908 12.8464L10.0303 11.1208L10.0294 11.1217C9.83184 10.9542 9.7183 10.7093 9.7183 10.4484V8.49176C9.7183 8.24443 9.83502 8.01879 10.0248 7.89558L10.1095 7.85912C10.1115 7.85822 10.1135 7.85732 10.1155 7.85641L12.3967 6.87462C12.4175 6.86558 12.4383 6.85564 12.458 6.84389C12.8142 6.63633 12.8624 6.66947 13.0349 6.99061C13.0973 7.10659 13.1288 7.23221 13.1288 7.36356C13.1288 7.62143 13.002 7.85611 12.7977 7.97481L11.6756 8.62853L11.6762 8.62973C11.6303 8.65655 11.5872 8.68878 11.5488 8.72855C11.3232 8.96383 11.3232 9.34521 11.5488 9.58049C11.6415 9.6772 11.7582 9.73444 11.8793 9.75131C13.6546 10.0794 14.7851 10.9126 15.3346 12.2993C15.4267 12.5316 15.642 12.672 15.8691 12.672C15.9424 12.672 16.0176 12.6569 16.0895 12.6262C16.3845 12.4988 16.5249 12.1466 16.403 11.8393C15.8624 10.4761 14.8761 9.51151 13.4657 8.95599C13.5697 8.8849 13.6673 8.80597 13.754 8.71499L14.2671 8.82254L14.2694 8.82284L17.4476 9.49343L17.4531 9.49403L19.1493 9.85223V12.4575ZM24.8259 8.87616C24.7283 9.37624 24.2608 9.701 23.7801 9.60158L20.3049 8.86772V7.92811H20.2878C20.2977 7.84225 20.3046 7.75549 20.3046 7.66662V6.98217L21.5021 7.23402C22.6586 7.47774 23.5975 7.67506 24.1314 7.78652C24.3628 7.83532 24.5633 7.97722 24.6956 8.18478C24.8262 8.39114 24.873 8.63666 24.8259 8.87616Z" fill="#267CAD"/>
</svg>
