<svg width="18" height="23" viewBox="0 0 18 23" fill="none" xmlns="http://www.w3.org/2000/svg">
<path d="M0.453767 23H3.9308C4.04069 23 4.1466 22.9596 4.22947 22.8863L17.8449 10.8264C17.9435 10.739 18 10.6128 18 10.48V5.21273C18 4.9587 17.7968 4.75273 17.5462 4.75273H14.1277C13.8771 4.75273 13.6739 4.9587 13.6739 5.21273V8.21801H12.6866V4.16173L16.1794 0.92H17.5462C17.7968 0.92 18 0.714033 18 0.46C18 0.205967 17.7968 0 17.5462 0H16.003C15.8896 0 15.7804 0.043125 15.6966 0.120615L1.37127 13.4164H0.453767C0.203176 13.4164 0 13.6223 0 13.8764C0 14.1304 0.203176 14.3364 0.453767 14.3364H1.54764C1.66108 14.3364 1.77031 14.2932 1.85406 14.2158L4.16078 12.0748V15.149H3.8723C3.62171 15.149 3.41854 15.355 3.41854 15.609V18.6145H0.453767C0.203176 18.6145 0 18.8205 0 19.0745V22.54C0 22.794 0.203176 23 0.453767 23ZM5.06832 11.2325L11.7791 5.00404V8.21801H10.7092C10.4586 8.21801 10.2554 8.42397 10.2554 8.67801V11.6835H7.29062C7.04003 11.6835 6.83685 11.8895 6.83685 12.1435V15.149H5.06832V11.2325ZM0.907533 19.5345H3.8723C4.1229 19.5345 4.32607 19.3285 4.32607 19.0745V16.069H7.29062C7.54121 16.069 7.74439 15.863 7.74439 15.609V12.6035H10.7092C10.9597 12.6035 11.1629 12.3975 11.1629 12.1435V9.13801H14.1277C14.3783 9.13801 14.5815 8.93204 14.5815 8.67801V5.67273H17.0925V10.2712L3.76041 22.08H0.907533V19.5345Z" fill="#C0C0C0"/>
</svg>
