<svg width="18" height="23" viewBox="0 0 18 23" fill="none" xmlns="http://www.w3.org/2000/svg">
<path fill-rule="evenodd" clip-rule="evenodd" d="M10.0615 4.31237V13.4163H9.10319V4.31237C9.10316 4.1853 9.05266 4.06345 8.9628 3.97361L8.14488 3.15569V0.958304H11.0198V3.15569L10.2019 3.97361C10.112 4.06345 10.0615 4.1853 10.0615 4.31237ZM8.14488 4.51074V13.4163H7.18603C7.05894 13.4163 6.93706 13.4667 6.84719 13.5566C6.75733 13.6465 6.70684 13.7684 6.70684 13.8954V15.8122C6.70684 15.9393 6.75733 16.0612 6.84719 16.151C6.93706 16.2409 7.05894 16.2914 7.18603 16.2914H7.66522V22.5208C7.66522 22.6479 7.7157 22.7698 7.80557 22.8597C7.89543 22.9495 8.01732 23 8.14441 23H11.0195C11.1466 23 11.2685 22.9495 11.3584 22.8597C11.4482 22.7698 11.4987 22.6479 11.4987 22.5208V16.2914H11.9779C12.105 16.2914 12.2269 16.2409 12.3167 16.151C12.4066 16.0612 12.4571 15.9393 12.4571 15.8122V13.8954C12.4571 13.7684 12.4066 13.6465 12.3167 13.5566C12.2269 13.4667 12.105 13.4163 11.9779 13.4163H11.0198V4.51074L11.8377 3.69282C11.9276 3.60299 11.9781 3.48113 11.9781 3.35406V0.479152C11.9781 0.352073 11.9276 0.230199 11.8378 0.14034C11.7479 0.0504819 11.626 0 11.4989 0H7.66573C7.53865 0 7.41678 0.0504819 7.32692 0.14034C7.23706 0.230199 7.18658 0.352073 7.18658 0.479152V3.35406C7.18661 3.48113 7.23711 3.60299 7.32697 3.69282L8.14488 4.51074ZM17.2485 21.0833V13.8965V13.8963V13.8954V3.83336C17.2485 3.32501 17.0465 2.83747 16.6871 2.47801C16.3276 2.11855 15.8401 1.91661 15.3317 1.91661C14.8234 1.91661 14.3358 2.11855 13.9764 2.47801C13.6169 2.83747 13.415 3.32501 13.415 3.83336V13.8954V13.8963V21.0833C13.415 21.5916 13.6169 22.0792 13.9764 22.4386C14.3358 22.7981 14.8234 23 15.3317 23C15.8401 23 16.3276 22.7981 16.6871 22.4386C17.0465 22.0792 17.2485 21.5916 17.2485 21.0833ZM15.6117 13.4163H14.3733V12.1779L15.6117 13.4163ZM14.3733 10.8228L16.2901 12.7395V11.2194L14.3733 9.30265V10.8228ZM14.3733 7.94731V6.42716L16.2901 8.34391V9.86406L14.3733 7.94731ZM14.3733 3.83336V5.07181L16.2901 6.98856V5.46952L14.406 3.5854C14.3845 3.66559 14.3733 3.7489 14.3733 3.83336ZM16.2901 4.11417V3.83336C16.2901 3.57918 16.1891 3.33542 16.0094 3.15569C15.8297 2.97596 15.5859 2.87498 15.3317 2.87498C15.2472 2.87498 15.1638 2.88615 15.0836 2.90766L16.2901 4.11417ZM14.3733 14.3746V15.3329H16.2901V14.3746H14.3733ZM14.3733 21.0833V16.2912H16.2901V21.0833C16.2901 21.3374 16.1891 21.5812 16.0094 21.7609C15.8297 21.9407 15.5859 22.0416 15.3317 22.0416C15.0775 22.0416 14.8338 21.9407 14.654 21.7609C14.4743 21.5812 14.3733 21.3374 14.3733 21.0833ZM2.62309 22.8515C2.85393 22.9493 3.10209 22.9996 3.35278 22.9994C3.60367 22.9999 3.85208 22.9498 4.08321 22.8522C4.31433 22.7546 4.52344 22.6115 4.69805 22.4313C4.87266 22.2512 5.00921 22.0377 5.09955 21.8036C5.18988 21.5695 5.23216 21.3197 5.22387 21.0689L4.82425 8.28181C5.41808 7.99252 5.91312 7.53412 6.24713 6.96425C6.58114 6.39438 6.73921 5.73848 6.70147 5.07901C6.66373 4.41955 6.43186 3.78596 6.03502 3.25792C5.63817 2.72988 5.09407 2.33095 4.47112 2.11129C4.39882 2.08567 4.32143 2.07778 4.24545 2.08829C4.16948 2.09879 4.09713 2.12739 4.0345 2.17166C3.97186 2.21594 3.92078 2.2746 3.88553 2.34272C3.85028 2.41084 3.8319 2.48643 3.83193 2.56313V5.27082H2.87362V2.56313C2.87366 2.48643 2.85528 2.41084 2.82003 2.34272C2.78478 2.2746 2.73369 2.21594 2.67106 2.17166C2.60842 2.12739 2.53608 2.09879 2.4601 2.08829C2.38412 2.07778 2.30673 2.08567 2.23444 2.11129C1.61161 2.33121 1.0677 2.73035 0.671096 3.25854C0.274488 3.78672 0.0428834 4.42037 0.00539963 5.07982C-0.0320841 5.73926 0.126226 6.39507 0.460428 6.9648C0.794629 7.53452 1.2898 7.99273 1.8837 8.28181L1.48408 21.0689C1.47579 21.3195 1.518 21.5691 1.60819 21.8031C1.69838 22.037 1.83471 22.2503 2.00907 22.4304C2.18343 22.6106 2.39224 22.7538 2.62309 22.8515ZM1.13686 4.36189C1.30099 3.96301 1.56998 3.61598 1.91532 3.35756V5.74997C1.91532 5.87705 1.9658 5.99892 2.05566 6.08878C2.14552 6.17864 2.26739 6.22912 2.39447 6.22912H4.31108C4.43816 6.22912 4.56003 6.17864 4.64989 6.08878C4.73975 5.99892 4.79023 5.87705 4.79023 5.74997V3.35756C5.13557 3.61598 5.40457 3.96301 5.5687 4.36189C5.73282 4.76076 5.78598 5.19661 5.72252 5.62324C5.65906 6.04986 5.48135 6.45137 5.20824 6.78521C4.93512 7.11904 4.57677 7.37276 4.17117 7.51948C4.07649 7.5541 3.99515 7.61771 3.93872 7.70124C3.88228 7.78477 3.85363 7.88398 3.85684 7.98473L4.26652 21.0986C4.2707 21.2211 4.25005 21.343 4.20583 21.4573C4.16161 21.5715 4.09473 21.6755 4.00922 21.7632C3.83417 21.9355 3.5984 22.0321 3.35278 22.0321C3.10716 22.0321 2.87139 21.9355 2.69634 21.7632C2.61082 21.6755 2.54394 21.5715 2.49972 21.4573C2.4555 21.343 2.43486 21.2211 2.43903 21.0986L2.84871 7.98473C2.85192 7.88398 2.82327 7.78477 2.76684 7.70124C2.7104 7.61771 2.62906 7.5541 2.53439 7.51948C2.12878 7.37276 1.77043 7.11904 1.49732 6.78521C1.2242 6.45137 1.04649 6.04986 0.983036 5.62324C0.919577 5.19661 0.972729 4.76076 1.13686 4.36189ZM3.832 20.1244H2.87363V21.0828H3.832V20.1244ZM10.5403 21.0828V22.0416H8.62359V21.0828H10.5403ZM10.5403 20.1244V15.8122C10.5403 15.6851 10.5908 15.5632 10.6807 15.4734C10.7706 15.3835 10.8924 15.333 11.0195 15.333H11.4987V14.3746H7.66522V15.333H9.58197V16.2914H8.62359V20.1244H10.5403Z" fill="#C0C0C0"/>
</svg>
