<svg width="22" height="18" viewBox="0 0 22 18" fill="none" xmlns="http://www.w3.org/2000/svg">
<path d="M20.3902 6.37354L20.7317 4.76265H21.3902C21.7317 4.76265 22 4.50584 22 4.17899C22 3.85214 21.7317 3.59533 21.3902 3.59533H20.2439H16.5854L14.6098 1.12062C14.0488 0.396887 13.1707 0 12.2195 0C11.2683 0 10.4146 0.420233 9.82927 1.12062L7.85366 3.59533H4.68293L3.92683 1.12062C3.85366 0.863813 3.60976 0.700389 3.34146 0.700389H0.609756C0.268293 0.700389 0 0.957198 0 1.28405C0 1.61089 0.268293 1.8677 0.609756 1.8677H2.87805L3.60976 4.27237C3.60976 4.29572 3.60976 4.31907 3.60976 4.34241L5.58537 10.8093C5.58537 10.8093 5.58537 10.8093 5.58537 10.8327L7.58537 17.2763C7.70732 17.6732 8.09756 17.9533 8.53659 17.9767H8.56098C9 17.9767 9.36585 17.7198 9.5122 17.323L11.2927 12.4669L15.3902 13.4241C15.122 13.8677 14.9756 14.3813 14.9756 14.9416C14.9756 16.6226 16.4146 18 18.1707 18C19.9268 18 21.3659 16.6226 21.3659 14.9416C21.3659 13.5875 20.439 12.4202 19.1463 12.0233L20.3902 6.37354ZM10.8049 1.82101C11.1463 1.40078 11.6585 1.14397 12.2195 1.14397C12.7805 1.14397 13.2927 1.37743 13.6341 1.82101L15.0488 3.59533H9.39024L10.8049 1.82101ZM16.1951 4.76265C16.2195 4.76265 16.2683 4.76265 16.2927 4.76265C16.3415 4.76265 16.3659 4.76265 16.3902 4.76265H19.4634L19.2927 5.67315H15.6341C15.2927 5.67315 15.0244 5.92996 15.0244 6.25681C15.0244 6.58366 15.2927 6.84047 15.6341 6.84047H19.0488L17.9756 11.8599C17.3659 11.9066 16.8293 12.0934 16.3659 12.4202L6.68293 10.1556L5.68293 6.84047H13.4878C13.8293 6.84047 14.0976 6.58366 14.0976 6.25681C14.0976 5.92996 13.8293 5.67315 13.4878 5.67315H5.31707L5.04878 4.76265H16.1951ZM8.60976 16.3424L7.07317 11.4397L10.122 12.1634L8.60976 16.3424ZM20.1951 14.9183C20.1951 15.9689 19.3171 16.8093 18.2195 16.8093C17.122 16.8093 16.2439 15.9689 16.2439 14.9183C16.2439 13.8677 17.122 13.0272 18.2195 13.0272C19.3171 13.0272 20.1951 13.8677 20.1951 14.9183Z" fill="#C0C0C0"/>
</svg>
