<svg width="24" height="18" viewBox="0 0 24 18" fill="none" xmlns="http://www.w3.org/2000/svg">
<path d="M0.521952 14.8741C1.01195 16.6121 2.51095 16.9301 2.61095 16.9911C5.07795 17.6631 18.906 17.6651 21.41 16.9911C23.125 16.4951 23.44 14.9741 23.499 14.8741C24.152 11.4001 24.195 6.8711 23.469 2.9291L23.499 3.1251C23.009 1.3871 21.51 1.0691 21.41 1.0081C18.976 0.347098 5.11195 0.322098 2.61095 1.0081C0.895952 1.5051 0.580952 3.0251 0.521952 3.1251C-0.177048 6.7761 -0.212048 10.9651 0.521952 14.8741V14.8741ZM9.60795 12.6511V5.3581L15.874 9.0101L9.60795 12.6511Z" fill="#E53935"/>
</svg>
